<svg xmlns="http://www.w3.org/2000/svg" xmlns:xlink="http://www.w3.org/1999/xlink" width="500" zoomAndPan="magnify" viewBox="0 0 375 374.999991" height="500" preserveAspectRatio="xMidYMid meet" version="1.0"><defs><clipPath id="9d18fb8724"><path d="M 28 14.765625 L 375 14.765625 L 375 360.515625 L 28 360.515625 Z M 28 14.765625 " clip-rule="nonzero"/></clipPath></defs><rect x="-37.5" width="450" fill="#ffffff" y="-37.499999" height="449.999989" fill-opacity="1"/><rect x="-37.5" width="450" fill="#ffffff" y="-37.499999" height="449.999989" fill-opacity="1"/><path fill="#000000" d="M 0.140625 336.855469 L 19.070312 336.855469 L 19.070312 346.339844 L 0.140625 346.339844 Z M 0.140625 336.855469 " fill-opacity="1" fill-rule="nonzero"/><g clip-path="url(#9d18fb8724)"><path fill="#000000" d="M 374.859375 336.855469 L 321.1875 336.855469 C 322.488281 332.5 322.832031 327.839844 322.046875 323.214844 C 319.921875 310.671875 309.90625 300.726562 297.128906 298.464844 L 258.363281 295.5625 C 233.851562 281.789062 231.28125 242.773438 231.066406 231.261719 C 234.304688 229.996094 236.378906 228.160156 237.699219 226.4375 L 263.828125 235.867188 L 264.285156 236.007812 C 265.90625 236.414062 267.546875 236.609375 269.167969 236.609375 C 275.6875 236.609375 281.910156 233.421875 285.582031 227.90625 C 289.777344 221.601562 289.96875 213.339844 286.070312 206.855469 L 285.015625 205.101562 L 248.789062 141.699219 C 244.390625 131.25 237.714844 122.910156 229.71875 117.394531 L 229.71875 60.523438 C 229.71875 48.230469 224.582031 36.699219 215.265625 28.054688 C 206.050781 19.488281 193.816406 14.773438 180.816406 14.773438 C 153.855469 14.773438 131.917969 35.296875 131.917969 60.523438 L 131.917969 116.222656 C 123.027344 121.757812 115.621094 130.679688 110.902344 142.09375 L 76.25 205.03125 L 75.214844 206.753906 C 71.316406 213.234375 71.507812 221.496094 75.703125 227.800781 C 79.375 233.320312 85.597656 236.507812 92.121094 236.507812 C 93.738281 236.507812 95.378906 236.308594 97 235.902344 L 122.234375 226.804688 C 123.679688 228.558594 125.921875 230.382812 129.390625 231.5625 C 129.554688 241.132812 128.734375 268.972656 114.804688 286.273438 C 100.160156 282.816406 90.300781 287.6875 87.046875 289.695312 L 82.765625 290.316406 C 78.5625 290.925781 75.242188 294.019531 74.296875 298.105469 L 70.324219 298.402344 L 69.851562 298.464844 C 57.074219 300.730469 47.0625 310.675781 44.933594 323.214844 C 44.152344 327.84375 44.496094 332.5 45.792969 336.851562 L 28.605469 336.851562 L 28.605469 346.339844 L 50.550781 346.339844 C 52.457031 348.898438 54.769531 351.1875 57.464844 353.0625 L 60.402344 355.109375 C 65.523438 358.664062 71.511719 360.507812 77.589844 360.507812 C 80.292969 360.507812 83.011719 360.144531 85.679688 359.402344 L 139.617188 344.433594 C 145.296875 346.195312 160.929688 350.335938 182.507812 350.335938 C 195.523438 350.335938 210.703125 348.820312 227.164062 344.375 L 281.304688 359.40625 C 283.976562 360.144531 286.691406 360.507812 289.394531 360.507812 C 295.472656 360.507812 301.464844 358.664062 306.578125 355.105469 L 309.515625 353.066406 C 312.214844 351.191406 314.527344 348.902344 316.433594 346.339844 L 374.859375 346.339844 Z M 269.742188 205.179688 C 272.722656 205.625 275.320312 207.371094 276.875 209.957031 L 277.953125 211.75 C 279.96875 215.105469 279.867188 219.382812 277.695312 222.648438 C 275.367188 226.148438 271.011719 227.824219 266.796875 226.855469 L 203.597656 204.046875 L 205.878906 195.558594 L 269.742188 205.183594 Z M 138.902344 232.835938 L 221.597656 232.835938 C 221.761719 239.328125 222.574219 251.070312 225.953125 263.484375 C 187.152344 271.902344 150.339844 266.648438 135.421875 263.773438 C 138.503906 251.28125 138.953125 239.433594 138.902344 232.835938 Z M 221.636719 223.351562 L 138.011719 223.351562 C 136.027344 223.351562 134.476562 223.140625 133.261719 222.828125 L 164.859375 211.433594 C 166.246094 211.054688 167.5625 210.570312 168.8125 210.007812 L 169.101562 209.90625 L 169.09375 209.882812 C 174.003906 207.601562 177.828125 204.019531 180.519531 199.894531 C 183.253906 204.089844 187.160156 207.71875 192.191406 209.992188 L 192.1875 210.007812 L 192.390625 210.082031 C 193.519531 210.582031 194.707031 211.011719 195.945312 211.367188 L 227.101562 222.613281 C 225.796875 223.039062 224.027344 223.351562 221.636719 223.351562 Z M 163.40625 188.679688 L 175.777344 159.460938 L 175.777344 184.441406 C 175.777344 190.261719 172.632812 196.96875 166.578125 200.503906 Z M 185.257812 184.441406 L 185.257812 159.460938 L 197.800781 189.085938 L 194.703125 200.636719 C 188.492188 197.136719 185.257812 190.335938 185.257812 184.441406 Z M 232.265625 132.484375 C 235.394531 136.203125 238.078125 140.621094 240.160156 145.628906 L 240.273438 145.902344 L 268.5625 195.410156 L 245.246094 191.894531 C 244.460938 183.191406 241.472656 174.945312 236.722656 168.476562 L 232.265625 162.40625 Z M 141.394531 60.523438 C 141.394531 40.527344 159.082031 24.257812 180.816406 24.257812 C 191.417969 24.257812 201.359375 28.074219 208.816406 35.007812 C 216.179688 41.839844 220.238281 50.902344 220.238281 60.523438 L 220.238281 112.4375 C 215.804688 110.777344 211.128906 109.890625 206.324219 109.875 L 204.386719 105.4375 C 210.542969 99.5625 214.394531 91.285156 214.394531 82.117188 L 214.394531 63.796875 L 147.242188 63.796875 L 147.242188 82.117188 C 147.242188 91.492188 151.265625 99.941406 157.667969 105.839844 L 155.757812 109.871094 L 153.671875 109.871094 C 149.453125 109.871094 145.339844 110.542969 141.394531 111.808594 Z M 182.179688 104.871094 L 179.453125 104.871094 C 166.917969 104.871094 156.71875 94.664062 156.71875 82.117188 L 156.71875 73.28125 L 204.914062 73.28125 L 204.914062 82.117188 C 204.914062 94.664062 194.714844 104.871094 182.179688 104.871094 Z M 198.488281 115.605469 L 198.488281 117.382812 C 198.488281 125.398438 190.636719 131.917969 180.992188 131.917969 C 171.34375 131.917969 163.496094 125.398438 163.496094 117.382812 L 163.496094 115.679688 L 165.609375 111.21875 C 169.804688 113.226562 174.5 114.355469 179.453125 114.355469 L 182.179688 114.355469 C 187.3125 114.355469 192.160156 113.144531 196.472656 111 Z M 131.929688 173.539062 L 138.199219 164.8125 L 138.199219 123.53125 C 142.992188 120.820312 148.242188 119.355469 153.671875 119.355469 L 154.117188 119.355469 C 155.25 131.679688 166.867188 141.402344 180.992188 141.402344 C 195.097656 141.402344 206.703125 131.707031 207.863281 119.410156 C 213.121094 119.703125 218.179688 121.371094 222.785156 124.210938 L 222.785156 165.515625 L 229.085938 174.09375 C 232.410156 178.617188 234.636719 184.308594 235.535156 190.433594 L 206.835938 186.105469 L 191.699219 150.359375 C 190.394531 147.289062 187.402344 145.300781 184.066406 145.300781 C 182.796875 145.300781 181.597656 145.597656 180.519531 146.113281 C 179.441406 145.597656 178.242188 145.300781 176.972656 145.300781 C 173.636719 145.300781 170.640625 147.289062 169.339844 150.359375 L 154.234375 186.035156 L 125.449219 190.371094 C 126.339844 184.0625 128.582031 178.199219 131.929688 173.539062 Z M 119.332031 146.433594 L 119.566406 145.941406 C 121.910156 140.203125 125.035156 135.230469 128.722656 131.183594 L 128.722656 161.757812 L 124.234375 168.003906 C 119.503906 174.585938 116.53125 182.976562 115.742188 191.832031 L 92.398438 195.351562 Z M 94.488281 226.753906 C 90.277344 227.71875 85.921875 226.042969 83.589844 222.542969 C 81.417969 219.273438 81.316406 214.996094 83.335938 211.644531 L 84.414062 209.847656 C 85.96875 207.261719 88.566406 205.523438 91.542969 205.074219 L 155.40625 195.449219 L 157.6875 203.941406 Z M 132.671875 272.933594 C 141.738281 274.765625 159.3125 277.617188 180.960938 277.617188 C 195.539062 277.617188 211.96875 276.3125 228.878906 272.546875 C 231.839844 280.359375 235.992188 287.988281 241.796875 294.320312 L 175.3125 289.34375 C 158.058594 277.117188 147.132812 281.859375 138.316406 285.699219 C 133.519531 287.789062 129.511719 289.519531 124.621094 288.945312 C 128.054688 283.972656 130.675781 278.503906 132.671875 272.933594 Z M 182.742188 299.410156 L 179.578125 321.324219 L 174.308594 319.859375 L 177.625 299.027344 Z M 83.511719 300.3125 C 83.5625 299.992188 83.8125 299.75 84.128906 299.703125 L 89.457031 298.925781 L 90.644531 298.777344 L 91.625 298.023438 C 92.011719 297.738281 101.273438 291.128906 117.226562 296.867188 C 127.738281 300.652344 135.367188 297.328125 142.097656 294.398438 C 150.089844 290.917969 156.5 288.128906 168.488281 296.144531 L 165.082031 317.527344 L 94.0625 301 L 84.246094 301.15625 C 84.019531 301.152344 83.832031 301.074219 83.683594 300.90625 C 83.582031 300.789062 83.46875 300.589844 83.511719 300.3125 Z M 83.144531 350.261719 C 77.199219 351.914062 70.882812 350.839844 65.8125 347.320312 L 62.875 345.273438 C 56.316406 340.714844 52.945312 332.679688 54.28125 324.804688 C 55.726562 316.277344 62.546875 309.488281 71.285156 307.84375 L 76.820312 307.429688 C 78.785156 309.515625 81.492188 310.6875 84.398438 310.640625 L 93.050781 310.503906 L 165.589844 327.382812 Z M 159.164062 339.011719 L 183.5 332.253906 L 207.375 338.882812 C 187.882812 341.890625 171.050781 340.816406 159.164062 339.011719 Z M 304.109375 345.273438 L 301.171875 347.316406 C 296.105469 350.839844 289.789062 351.914062 283.839844 350.261719 L 188.785156 323.878906 L 192.21875 300.117188 L 295.703125 307.84375 C 304.4375 309.480469 311.257812 316.269531 312.703125 324.800781 C 314.039062 332.679688 310.664062 340.714844 304.109375 345.273438 Z M 304.109375 345.273438 " fill-opacity="1" fill-rule="nonzero"/></g><path fill="#000000" d="M 186.011719 255.503906 C 186.011719 255.859375 185.976562 256.207031 185.910156 256.554688 C 185.839844 256.898438 185.738281 257.234375 185.605469 257.5625 C 185.46875 257.886719 185.304688 258.199219 185.109375 258.492188 C 184.910156 258.785156 184.6875 259.054688 184.441406 259.304688 C 184.191406 259.554688 183.917969 259.777344 183.625 259.972656 C 183.332031 260.167969 183.023438 260.335938 182.699219 260.46875 C 182.371094 260.605469 182.035156 260.707031 181.691406 260.777344 C 181.34375 260.84375 180.996094 260.878906 180.644531 260.878906 C 180.289062 260.878906 179.941406 260.84375 179.597656 260.777344 C 179.25 260.707031 178.914062 260.605469 178.589844 260.46875 C 178.261719 260.335938 177.953125 260.167969 177.660156 259.972656 C 177.367188 259.777344 177.097656 259.554688 176.847656 259.304688 C 176.597656 259.054688 176.375 258.785156 176.179688 258.492188 C 175.984375 258.199219 175.816406 257.886719 175.683594 257.5625 C 175.546875 257.234375 175.445312 256.898438 175.378906 256.554688 C 175.308594 256.207031 175.273438 255.859375 175.273438 255.503906 C 175.273438 255.152344 175.308594 254.804688 175.378906 254.457031 C 175.445312 254.109375 175.546875 253.773438 175.683594 253.449219 C 175.816406 253.121094 175.984375 252.8125 176.179688 252.519531 C 176.375 252.226562 176.597656 251.953125 176.847656 251.707031 C 177.097656 251.457031 177.367188 251.234375 177.660156 251.039062 C 177.953125 250.839844 178.261719 250.675781 178.589844 250.539062 C 178.914062 250.40625 179.25 250.304688 179.597656 250.234375 C 179.941406 250.167969 180.289062 250.132812 180.644531 250.132812 C 180.996094 250.132812 181.34375 250.167969 181.691406 250.234375 C 182.035156 250.304688 182.371094 250.40625 182.699219 250.539062 C 183.023438 250.675781 183.332031 250.839844 183.625 251.039062 C 183.917969 251.234375 184.191406 251.457031 184.441406 251.707031 C 184.6875 251.953125 184.910156 252.226562 185.109375 252.519531 C 185.304688 252.8125 185.46875 253.121094 185.605469 253.449219 C 185.738281 253.773438 185.839844 254.109375 185.910156 254.457031 C 185.976562 254.804688 186.011719 255.152344 186.011719 255.503906 Z M 186.011719 255.503906 " fill-opacity="1" fill-rule="nonzero"/></svg>