<svg xmlns="http://www.w3.org/2000/svg" xmlns:xlink="http://www.w3.org/1999/xlink" width="500" zoomAndPan="magnify" viewBox="0 0 375 374.999991" height="500" preserveAspectRatio="xMidYMid meet" version="1.0"><path fill="#100f0d" d="M 343.75 362.5 L 31.25 362.5 C 20.910156 362.5 12.5 354.089844 12.5 343.75 L 12.5 112.5 L 362.5 112.5 L 362.5 343.75 C 362.5 354.089844 354.089844 362.5 343.75 362.5 Z M 31.25 37.5 L 68.75 37.5 L 68.75 56.25 C 68.75 66.589844 77.160156 75 87.5 75 C 97.839844 75 106.25 66.589844 106.25 56.25 L 106.25 37.5 L 168.75 37.5 L 168.75 56.25 C 168.75 66.589844 177.160156 75 187.5 75 C 197.839844 75 206.25 66.589844 206.25 56.25 L 206.25 37.5 L 268.75 37.5 L 268.75 56.25 C 268.75 66.589844 277.160156 75 287.5 75 C 297.839844 75 306.25 66.589844 306.25 56.25 L 306.25 37.5 L 343.75 37.5 C 354.089844 37.5 362.5 45.910156 362.5 56.25 L 362.5 100 L 12.5 100 L 12.5 56.25 C 12.5 45.910156 20.910156 37.5 31.25 37.5 Z M 81.25 18.75 C 81.25 15.304688 84.054688 12.5 87.5 12.5 C 90.945312 12.5 93.75 15.304688 93.75 18.75 L 93.75 56.25 C 93.75 59.695312 90.945312 62.5 87.5 62.5 C 84.054688 62.5 81.25 59.695312 81.25 56.25 Z M 181.25 18.75 C 181.25 15.304688 184.054688 12.5 187.5 12.5 C 190.945312 12.5 193.75 15.304688 193.75 18.75 L 193.75 56.25 C 193.75 59.695312 190.945312 62.5 187.5 62.5 C 184.054688 62.5 181.25 59.695312 181.25 56.25 Z M 281.25 18.75 C 281.25 15.304688 284.054688 12.5 287.5 12.5 C 290.945312 12.5 293.75 15.304688 293.75 18.75 L 293.75 56.25 C 293.75 59.695312 290.945312 62.5 287.5 62.5 C 284.054688 62.5 281.25 59.695312 281.25 56.25 Z M 343.75 25 L 306.25 25 L 306.25 18.75 C 306.25 8.410156 297.839844 0 287.5 0 C 277.160156 0 268.75 8.410156 268.75 18.75 L 268.75 25 L 206.25 25 L 206.25 18.75 C 206.25 8.410156 197.839844 0 187.5 0 C 177.160156 0 168.75 8.410156 168.75 18.75 L 168.75 25 L 106.25 25 L 106.25 18.75 C 106.25 8.410156 97.839844 0 87.5 0 C 77.160156 0 68.75 8.410156 68.75 18.75 L 68.75 25 L 31.25 25 C 14.019531 25 0 39.019531 0 56.25 L 0 343.75 C 0 360.980469 14.019531 375 31.25 375 L 343.75 375 C 360.980469 375 375 360.980469 375 343.75 L 375 56.25 C 375 39.019531 360.980469 25 343.75 25 " fill-opacity="1" fill-rule="nonzero"/><path fill="#100f0d" d="M 325 181.25 L 312.5 181.25 L 312.5 168.75 L 325 168.75 Z M 331.25 156.25 L 306.25 156.25 C 302.796875 156.25 300 159.046875 300 162.5 L 300 187.5 C 300 190.953125 302.796875 193.75 306.25 193.75 L 331.25 193.75 C 334.703125 193.75 337.5 190.953125 337.5 187.5 L 337.5 162.5 C 337.5 159.046875 334.703125 156.25 331.25 156.25 " fill-opacity="1" fill-rule="nonzero"/><path fill="#100f0d" d="M 200 306.25 L 187.5 306.25 L 187.5 293.75 L 200 293.75 Z M 206.25 281.25 L 181.25 281.25 C 177.796875 281.25 175 284.046875 175 287.5 L 175 312.5 C 175 315.953125 177.796875 318.75 181.25 318.75 L 206.25 318.75 C 209.703125 318.75 212.5 315.953125 212.5 312.5 L 212.5 287.5 C 212.5 284.046875 209.703125 281.25 206.25 281.25 " fill-opacity="1" fill-rule="nonzero"/><path fill="#100f0d" d="M 137.5 181.25 L 125 181.25 L 125 168.75 L 137.5 168.75 Z M 143.75 156.25 L 118.75 156.25 C 115.296875 156.25 112.5 159.046875 112.5 162.5 L 112.5 187.5 C 112.5 190.953125 115.296875 193.75 118.75 193.75 L 143.75 193.75 C 147.203125 193.75 150 190.953125 150 187.5 L 150 162.5 C 150 159.046875 147.203125 156.25 143.75 156.25 " fill-opacity="1" fill-rule="nonzero"/><path fill="#100f0d" d="M 75 243.75 L 62.5 243.75 L 62.5 231.25 L 75 231.25 Z M 81.25 218.75 L 56.25 218.75 C 52.796875 218.75 50 221.546875 50 225 L 50 250 C 50 253.453125 52.796875 256.25 56.25 256.25 L 81.25 256.25 C 84.703125 256.25 87.5 253.453125 87.5 250 L 87.5 225 C 87.5 221.546875 84.703125 218.75 81.25 218.75 " fill-opacity="1" fill-rule="nonzero"/><path fill="#100f0d" d="M 137.5 243.75 L 125 243.75 L 125 231.25 L 137.5 231.25 Z M 143.75 218.75 L 118.75 218.75 C 115.296875 218.75 112.5 221.546875 112.5 225 L 112.5 250 C 112.5 253.453125 115.296875 256.25 118.75 256.25 L 143.75 256.25 C 147.203125 256.25 150 253.453125 150 250 L 150 225 C 150 221.546875 147.203125 218.75 143.75 218.75 " fill-opacity="1" fill-rule="nonzero"/><path fill="#100f0d" d="M 75 306.25 L 62.5 306.25 L 62.5 293.75 L 75 293.75 Z M 81.25 281.25 L 56.25 281.25 C 52.796875 281.25 50 284.046875 50 287.5 L 50 312.5 C 50 315.953125 52.796875 318.75 56.25 318.75 L 81.25 318.75 C 84.703125 318.75 87.5 315.953125 87.5 312.5 L 87.5 287.5 C 87.5 284.046875 84.703125 281.25 81.25 281.25 " fill-opacity="1" fill-rule="nonzero"/><path fill="#100f0d" d="M 137.5 306.25 L 125 306.25 L 125 293.75 L 137.5 293.75 Z M 143.75 281.25 L 118.75 281.25 C 115.296875 281.25 112.5 284.046875 112.5 287.5 L 112.5 312.5 C 112.5 315.953125 115.296875 318.75 118.75 318.75 L 143.75 318.75 C 147.203125 318.75 150 315.953125 150 312.5 L 150 287.5 C 150 284.046875 147.203125 281.25 143.75 281.25 " fill-opacity="1" fill-rule="nonzero"/><path fill="#100f0d" d="M 245.527344 209.453125 C 244.140625 210.875 243.511719 212.871094 243.832031 214.824219 L 247.664062 238.300781 L 228.023438 227.449219 C 227.082031 226.929688 226.039062 226.667969 225 226.667969 C 223.960938 226.667969 222.917969 226.929688 221.976562 227.449219 L 202.335938 238.300781 L 206.167969 214.824219 C 206.488281 212.871094 205.859375 210.875 204.472656 209.453125 L 187.96875 192.539062 L 210.496094 189.097656 C 212.554688 188.78125 214.320312 187.460938 215.207031 185.574219 L 225 164.710938 L 234.792969 185.574219 C 235.679688 187.460938 237.445312 188.78125 239.503906 189.097656 L 262.03125 192.539062 Z M 275.941406 182.019531 L 244.691406 177.242188 L 230.65625 147.34375 C 229.628906 145.152344 227.421875 143.75 225 143.75 C 222.578125 143.75 220.371094 145.152344 219.34375 147.34375 L 205.308594 177.242188 L 174.058594 182.019531 C 171.742188 182.371094 169.816406 183.992188 169.074219 186.210938 C 168.328125 188.433594 168.890625 190.882812 170.527344 192.5625 L 193.324219 215.925781 L 187.929688 248.992188 C 187.546875 251.355469 188.542969 253.730469 190.5 255.109375 C 192.457031 256.488281 195.027344 256.628906 197.121094 255.46875 L 225 240.058594 L 252.878906 255.46875 C 253.824219 255.992188 254.863281 256.25 255.902344 256.25 C 257.164062 256.25 258.425781 255.867188 259.5 255.109375 C 261.457031 253.730469 262.453125 251.355469 262.070312 248.992188 L 256.675781 215.925781 L 279.472656 192.5625 C 281.109375 190.882812 281.671875 188.433594 280.925781 186.210938 C 280.183594 183.992188 278.257812 182.371094 275.941406 182.019531 " fill-opacity="1" fill-rule="nonzero"/><path fill="#100f0d" d="M 325 243.75 L 312.5 243.75 L 312.5 231.25 L 325 231.25 Z M 331.25 218.75 L 306.25 218.75 C 302.796875 218.75 300 221.546875 300 225 L 300 250 C 300 253.453125 302.796875 256.25 306.25 256.25 L 331.25 256.25 C 334.703125 256.25 337.5 253.453125 337.5 250 L 337.5 225 C 337.5 221.546875 334.703125 218.75 331.25 218.75 " fill-opacity="1" fill-rule="nonzero"/><path fill="#100f0d" d="M 325 306.25 L 312.5 306.25 L 312.5 293.75 L 325 293.75 Z M 331.25 281.25 L 306.25 281.25 C 302.796875 281.25 300 284.046875 300 287.5 L 300 312.5 C 300 315.953125 302.796875 318.75 306.25 318.75 L 331.25 318.75 C 334.703125 318.75 337.5 315.953125 337.5 312.5 L 337.5 287.5 C 337.5 284.046875 334.703125 281.25 331.25 281.25 " fill-opacity="1" fill-rule="nonzero"/><path fill="#100f0d" d="M 262.5 306.25 L 250 306.25 L 250 293.75 L 262.5 293.75 Z M 268.75 281.25 L 243.75 281.25 C 240.296875 281.25 237.5 284.046875 237.5 287.5 L 237.5 312.5 C 237.5 315.953125 240.296875 318.75 243.75 318.75 L 268.75 318.75 C 272.203125 318.75 275 315.953125 275 312.5 L 275 287.5 C 275 284.046875 272.203125 281.25 268.75 281.25 " fill-opacity="1" fill-rule="nonzero"/></svg>