<svg xmlns="http://www.w3.org/2000/svg" xmlns:xlink="http://www.w3.org/1999/xlink" width="500" zoomAndPan="magnify" viewBox="0 0 375 374.999991" height="500" preserveAspectRatio="xMidYMid meet" version="1.0"><defs><clipPath id="d4f0659eef"><path d="M 0 46.875 L 374.996094 46.875 L 374.996094 328.027344 L 0 328.027344 Z M 0 46.875 " clip-rule="nonzero"/></clipPath></defs><rect x="-37.5" width="450" fill="#ffffff" y="-37.499999" height="449.999989" fill-opacity="1"/><rect x="-37.5" width="450" fill="#ffffff" y="-37.499999" height="449.999989" fill-opacity="1"/><g clip-path="url(#d4f0659eef)"><path fill="#d25c0d" d="M 343.457031 203.28125 C 340.34375 200.074219 338.191406 197.296875 338.585938 196.898438 C 338.617188 196.871094 338.667969 196.859375 338.730469 196.859375 C 339.417969 196.847656 342.015625 198.898438 344.980469 201.769531 C 346.511719 200.277344 347.941406 199.007812 349.066406 198.136719 C 349.128906 198.097656 349.179688 198.054688 349.238281 198.015625 C 349.410156 197.875 349.585938 197.75 349.746094 197.640625 C 349.839844 197.570312 349.917969 197.507812 350.011719 197.457031 C 350.132812 197.375 350.253906 197.296875 350.367188 197.222656 C 350.46875 197.164062 350.558594 197.113281 350.648438 197.0625 C 350.71875 197.03125 350.800781 196.980469 350.863281 196.949219 C 351.003906 196.898438 351.117188 196.859375 351.199219 196.859375 C 351.207031 196.859375 351.21875 196.859375 351.21875 196.859375 C 351.226562 196.859375 351.226562 196.859375 351.226562 196.859375 C 351.277344 196.859375 351.328125 196.871094 351.359375 196.898438 C 351.359375 196.898438 351.359375 196.898438 351.359375 196.910156 C 351.410156 196.960938 351.410156 197.050781 351.378906 197.171875 C 351.371094 197.222656 351.328125 197.285156 351.308594 197.347656 C 351.277344 197.4375 351.238281 197.539062 351.167969 197.660156 C 351.125 197.742188 351.054688 197.851562 350.996094 197.945312 C 350.921875 198.066406 350.84375 198.199219 350.75 198.339844 C 350.667969 198.460938 350.566406 198.59375 350.46875 198.726562 C 350.367188 198.867188 350.253906 199.007812 350.132812 199.171875 C 350.019531 199.324219 349.886719 199.488281 349.757812 199.648438 C 349.625 199.8125 349.492188 199.972656 349.351562 200.144531 C 349.199219 200.320312 349.035156 200.5 348.875 200.695312 C 348.722656 200.867188 348.570312 201.039062 348.40625 201.222656 C 348.234375 201.425781 348.050781 201.628906 347.859375 201.839844 C 347.6875 202.023438 347.515625 202.207031 347.34375 202.398438 C 347.140625 202.609375 346.9375 202.824219 346.722656 203.035156 C 346.640625 203.128906 346.570312 203.199219 346.492188 203.28125 C 346.570312 203.371094 346.640625 203.441406 346.722656 203.535156 C 346.9375 203.746094 347.140625 203.960938 347.34375 204.171875 C 347.515625 204.367188 347.6875 204.546875 347.859375 204.730469 C 348.050781 204.945312 348.234375 205.148438 348.40625 205.351562 C 348.570312 205.53125 348.722656 205.703125 348.875 205.878906 C 349.035156 206.058594 349.199219 206.253906 349.351562 206.425781 C 349.492188 206.597656 349.625 206.761719 349.757812 206.921875 C 349.886719 207.085938 350.019531 207.246094 350.132812 207.398438 C 350.253906 207.5625 350.367188 207.703125 350.46875 207.84375 C 350.566406 207.976562 350.667969 208.109375 350.75 208.230469 C 350.84375 208.371094 350.921875 208.503906 350.996094 208.625 C 351.054688 208.71875 351.125 208.828125 351.167969 208.910156 C 351.238281 209.03125 351.277344 209.132812 351.308594 209.226562 C 351.328125 209.285156 351.371094 209.347656 351.378906 209.398438 C 351.410156 209.519531 351.410156 209.609375 351.359375 209.660156 C 351.359375 209.671875 351.359375 209.671875 351.359375 209.671875 C 351.328125 209.703125 351.277344 209.710938 351.226562 209.710938 C 351.226562 209.710938 351.226562 209.710938 351.21875 209.710938 C 351.21875 209.710938 351.207031 209.710938 351.199219 209.710938 C 351.117188 209.710938 351.003906 209.671875 350.863281 209.621094 C 350.800781 209.589844 350.71875 209.539062 350.648438 209.507812 C 350.558594 209.457031 350.46875 209.40625 350.355469 209.347656 C 350.253906 209.277344 350.132812 209.195312 350.011719 209.113281 C 349.917969 209.0625 349.839844 209 349.746094 208.929688 C 349.585938 208.820312 349.410156 208.699219 349.238281 208.554688 C 349.179688 208.515625 349.128906 208.472656 349.066406 208.433594 C 347.941406 207.5625 346.511719 206.292969 344.980469 204.800781 C 342.015625 207.671875 339.417969 209.710938 338.730469 209.710938 C 338.667969 209.710938 338.617188 209.703125 338.585938 209.671875 C 338.191406 209.277344 340.34375 206.496094 343.457031 203.28125 Z M 22.144531 203.28125 C 19.019531 200.074219 16.878906 197.296875 17.265625 196.898438 C 17.304688 196.871094 17.347656 196.859375 17.40625 196.859375 C 18.109375 196.847656 20.695312 198.898438 23.65625 201.769531 C 25.199219 200.277344 26.628906 199.007812 27.753906 198.136719 C 27.804688 198.097656 27.867188 198.054688 27.917969 198.015625 C 28.101562 197.875 28.273438 197.75 28.425781 197.640625 C 28.515625 197.570312 28.605469 197.507812 28.6875 197.457031 C 28.808594 197.375 28.933594 197.296875 29.042969 197.222656 C 29.15625 197.164062 29.246094 197.113281 29.335938 197.0625 C 29.410156 197.03125 29.480469 196.980469 29.550781 196.949219 C 29.683594 196.898438 29.792969 196.859375 29.886719 196.859375 C 29.886719 196.859375 29.894531 196.859375 29.90625 196.859375 C 29.964844 196.859375 30.007812 196.871094 30.039062 196.898438 C 30.089844 196.949219 30.097656 197.050781 30.066406 197.171875 C 30.058594 197.214844 30.015625 197.285156 29.996094 197.335938 C 29.957031 197.4375 29.925781 197.539062 29.855469 197.660156 C 29.804688 197.742188 29.742188 197.84375 29.683594 197.945312 C 29.601562 198.066406 29.53125 198.1875 29.429688 198.339844 C 29.347656 198.460938 29.246094 198.59375 29.15625 198.714844 C 29.042969 198.867188 28.941406 199.007812 28.808594 199.171875 C 28.699219 199.324219 28.566406 199.488281 28.445312 199.640625 C 28.3125 199.8125 28.171875 199.972656 28.027344 200.144531 C 27.875 200.320312 27.722656 200.511719 27.5625 200.695312 C 27.410156 200.867188 27.257812 201.039062 27.09375 201.222656 C 26.914062 201.425781 26.730469 201.628906 26.539062 201.839844 C 26.375 202.023438 26.203125 202.207031 26.019531 202.398438 C 25.816406 202.609375 25.613281 202.824219 25.410156 203.035156 C 25.332031 203.128906 25.257812 203.199219 25.179688 203.28125 C 25.257812 203.371094 25.332031 203.441406 25.410156 203.535156 C 25.613281 203.746094 25.816406 203.960938 26.019531 204.171875 C 26.203125 204.367188 26.375 204.546875 26.539062 204.730469 C 26.730469 204.945312 26.914062 205.148438 27.09375 205.351562 C 27.257812 205.53125 27.410156 205.703125 27.5625 205.878906 C 27.722656 206.058594 27.875 206.242188 28.027344 206.425781 C 28.171875 206.597656 28.3125 206.761719 28.445312 206.933594 C 28.566406 207.085938 28.699219 207.246094 28.808594 207.398438 C 28.941406 207.5625 29.042969 207.703125 29.15625 207.855469 C 29.246094 207.976562 29.347656 208.121094 29.429688 208.230469 C 29.53125 208.382812 29.601562 208.503906 29.683594 208.625 C 29.742188 208.726562 29.804688 208.828125 29.855469 208.910156 C 29.925781 209.03125 29.957031 209.132812 29.996094 209.234375 C 30.015625 209.285156 30.058594 209.355469 30.066406 209.398438 C 30.097656 209.519531 30.089844 209.621094 30.039062 209.671875 C 30.007812 209.703125 29.964844 209.710938 29.90625 209.710938 C 29.894531 209.710938 29.886719 209.710938 29.886719 209.710938 C 29.792969 209.710938 29.683594 209.671875 29.550781 209.621094 C 29.480469 209.589844 29.410156 209.539062 29.335938 209.507812 C 29.246094 209.457031 29.15625 209.40625 29.042969 209.347656 C 28.933594 209.277344 28.808594 209.195312 28.6875 209.113281 C 28.605469 209.0625 28.515625 209 28.425781 208.929688 C 28.273438 208.820312 28.101562 208.699219 27.917969 208.566406 C 27.867188 208.515625 27.804688 208.472656 27.746094 208.421875 C 26.617188 207.550781 25.199219 206.292969 23.65625 204.800781 C 20.703125 207.671875 18.109375 209.710938 17.40625 209.710938 C 17.347656 209.710938 17.304688 209.703125 17.265625 209.671875 C 16.878906 209.277344 19.019531 206.496094 22.144531 203.28125 Z M 179.394531 58.246094 C 173.875 52.566406 170.082031 47.644531 170.769531 46.945312 C 170.832031 46.894531 170.910156 46.863281 171.011719 46.863281 C 172.25 46.863281 176.847656 50.488281 182.070312 55.570312 C 187.296875 50.488281 191.890625 46.863281 193.128906 46.863281 C 193.230469 46.863281 193.3125 46.894531 193.371094 46.945312 C 194.0625 47.644531 190.265625 52.566406 184.75 58.246094 C 190.265625 63.925781 194.0625 68.847656 193.371094 69.539062 C 193.3125 69.597656 193.230469 69.617188 193.128906 69.617188 C 191.890625 69.617188 187.296875 66.007812 182.070312 60.925781 C 176.847656 66.007812 172.25 69.617188 171.011719 69.617188 C 170.910156 69.617188 170.832031 69.597656 170.769531 69.539062 C 170.082031 68.847656 173.875 63.925781 179.394531 58.246094 Z M 251.792969 112.90625 C 246.273438 107.222656 242.480469 102.304688 243.171875 101.613281 C 243.230469 101.554688 243.3125 101.53125 243.414062 101.53125 C 244.652344 101.53125 249.238281 105.144531 254.472656 110.226562 C 259.695312 105.144531 264.28125 101.53125 265.519531 101.53125 C 265.628906 101.53125 265.710938 101.554688 265.773438 101.613281 C 266.460938 102.304688 262.667969 107.222656 257.148438 112.90625 C 262.667969 118.585938 266.460938 123.515625 265.773438 124.207031 C 265.710938 124.257812 265.628906 124.285156 265.519531 124.285156 C 264.28125 124.285156 259.695312 120.675781 254.472656 115.59375 C 249.238281 120.675781 244.652344 124.285156 243.414062 124.285156 C 243.3125 124.285156 243.230469 124.257812 243.171875 124.207031 C 242.480469 123.515625 246.273438 118.585938 251.792969 112.90625 Z M 114.582031 115.90625 C 109.050781 110.226562 105.269531 105.304688 105.957031 104.605469 C 106.019531 104.554688 106.101562 104.523438 106.203125 104.523438 C 107.4375 104.523438 112.023438 108.148438 117.257812 113.230469 C 119.976562 110.582031 122.503906 108.351562 124.492188 106.808594 C 124.59375 106.726562 124.703125 106.644531 124.804688 106.574219 C 125.121094 106.332031 125.414062 106.109375 125.699219 105.90625 C 125.859375 105.792969 126.011719 105.691406 126.164062 105.589844 C 126.378906 105.449219 126.601562 105.304688 126.792969 105.183594 C 126.976562 105.074219 127.140625 104.992188 127.300781 104.902344 C 127.433594 104.839844 127.566406 104.757812 127.675781 104.707031 C 127.921875 104.605469 128.125 104.546875 128.273438 104.535156 C 128.285156 104.535156 128.304688 104.523438 128.304688 104.523438 C 128.417969 104.523438 128.5 104.554688 128.550781 104.605469 C 128.640625 104.699219 128.652344 104.871094 128.601562 105.09375 C 128.578125 105.175781 128.507812 105.296875 128.476562 105.386719 C 128.40625 105.558594 128.347656 105.734375 128.222656 105.964844 C 128.144531 106.109375 128.023438 106.28125 127.921875 106.441406 C 127.789062 106.675781 127.644531 106.898438 127.472656 107.152344 C 127.332031 107.367188 127.160156 107.597656 126.988281 107.820312 C 126.792969 108.085938 126.613281 108.351562 126.378906 108.632812 C 126.175781 108.898438 125.953125 109.179688 125.730469 109.457031 C 125.484375 109.75 125.253906 110.042969 124.988281 110.359375 C 124.734375 110.664062 124.449219 110.988281 124.167969 111.3125 C 123.902344 111.625 123.628906 111.941406 123.335938 112.265625 C 123.019531 112.621094 122.707031 112.964844 122.371094 113.332031 C 122.066406 113.664062 121.753906 114 121.4375 114.335938 C 121.082031 114.71875 120.726562 115.097656 120.351562 115.472656 C 120.210938 115.625 120.089844 115.765625 119.945312 115.90625 C 120.089844 116.058594 120.21875 116.203125 120.363281 116.34375 C 120.726562 116.730469 121.082031 117.09375 121.429688 117.46875 C 121.753906 117.8125 122.066406 118.148438 122.371094 118.484375 C 122.707031 118.847656 123.019531 119.203125 123.335938 119.550781 C 123.617188 119.875 123.902344 120.1875 124.167969 120.503906 C 124.449219 120.828125 124.734375 121.152344 124.988281 121.457031 C 125.253906 121.769531 125.496094 122.066406 125.730469 122.359375 C 125.953125 122.632812 126.175781 122.917969 126.378906 123.179688 C 126.613281 123.464844 126.792969 123.730469 126.996094 123.992188 C 127.160156 124.226562 127.332031 124.449219 127.472656 124.652344 C 127.644531 124.914062 127.789062 125.136719 127.929688 125.371094 C 128.023438 125.535156 128.144531 125.707031 128.222656 125.847656 C 128.347656 126.082031 128.40625 126.253906 128.476562 126.425781 C 128.507812 126.519531 128.578125 126.640625 128.601562 126.722656 C 128.652344 126.945312 128.640625 127.117188 128.550781 127.207031 C 128.5 127.257812 128.417969 127.289062 128.304688 127.289062 C 128.304688 127.289062 128.285156 127.277344 128.273438 127.277344 C 128.125 127.269531 127.921875 127.207031 127.675781 127.105469 C 127.566406 127.066406 127.433594 126.984375 127.300781 126.914062 C 127.140625 126.832031 126.976562 126.742188 126.785156 126.628906 C 126.601562 126.507812 126.386719 126.367188 126.164062 126.222656 C 126.011719 126.121094 125.859375 126.019531 125.699219 125.898438 C 125.414062 125.707031 125.121094 125.484375 124.804688 125.25 C 124.703125 125.167969 124.59375 125.078125 124.480469 124.996094 C 122.492188 123.453125 119.976562 121.234375 117.257812 118.585938 C 112.023438 123.667969 107.4375 127.289062 106.203125 127.289062 C 106.101562 127.289062 106.019531 127.257812 105.957031 127.207031 C 105.269531 126.507812 109.050781 121.589844 114.582031 115.90625 Z M 113.757812 322.820312 C 104.457031 322.820312 95.113281 321.847656 86.003906 319.929688 C 53.652344 313.074219 25.097656 294.703125 5.601562 268.214844 C 5.113281 267.535156 5.164062 266.824219 5.246094 266.460938 C 5.324219 266.09375 5.570312 265.425781 6.308594 265 C 11.117188 262.238281 16.121094 259.765625 21.160156 257.664062 C 21.28125 257.625 21.394531 257.582031 21.515625 257.53125 C 33.089844 252.695312 45.273438 249.519531 57.761719 248.097656 C 64.070312 258.515625 71.589844 268.113281 80.152344 276.683594 C 100.226562 296.742188 125.578125 310.679688 152.988281 316.949219 C 140.316406 320.851562 127.179688 322.820312 113.757812 322.820312 Z M 60.542969 242.601562 C 46.652344 243.835938 32.816406 247.175781 19.507812 252.734375 C 19.457031 252.734375 19.394531 252.765625 19.34375 252.796875 C 14.050781 254.996094 8.835938 257.5625 3.734375 260.496094 C -0.0898438 262.664062 -1.175781 267.738281 1.410156 271.277344 C 22.378906 299.773438 52.4375 318.125 84.929688 325.011719 C 94.382812 327.011719 104.050781 328.015625 113.757812 328.015625 C 132.820312 328.015625 152.035156 324.109375 170.160156 316.035156 C 170.984375 315.667969 171.773438 315.253906 172.585938 314.867188 C 139.089844 311.671875 107.835938 297.003906 83.824219 273.011719 C 74.671875 263.851562 66.882812 253.605469 60.542969 242.601562 Z M 139.929688 205.390625 C 139.273438 242.914062 153.027344 280.609375 181.148438 309.429688 C 144.839844 308.050781 112.09375 292.753906 88.082031 268.753906 C 64.609375 245.257812 49.445312 213.464844 47.433594 178.152344 C 47.191406 173.914062 50.628906 170.351562 54.832031 170.351562 L 54.832031 175.546875 C 54.007812 175.546875 53.472656 175.992188 53.21875 176.257812 C 52.972656 176.519531 52.578125 177.066406 52.617188 177.859375 C 54.496094 210.726562 68.394531 241.707031 91.753906 265.078125 C 112.695312 285.996094 139.585938 299.257812 168.558594 303.140625 C 146.535156 276.25 134.644531 242.90625 134.707031 207.722656 C 112.46875 188.613281 84.25 177.210938 54.960938 175.554688 L 54.832031 170.351562 C 54.972656 170.351562 55.113281 170.363281 55.257812 170.371094 C 87.699219 172.199219 117.167969 185.113281 139.929688 205.390625 Z M 204.257812 302.644531 C 226.523438 275.953125 238.726562 242.710938 238.980469 207.53125 C 261.246094 188.753906 289.386719 177.625 318.480469 176.132812 L 318.625 176.125 C 319.628906 176.125 320.296875 176.671875 320.589844 176.996094 C 320.894531 177.320312 321.382812 178 321.3125 178.976562 C 319.019531 211.609375 304.847656 242.265625 281.402344 265.28125 C 260.285156 286.007812 233.257812 299.023438 204.257812 302.644531 Z M 326.484375 179.339844 C 326.808594 174.785156 323.128906 170.929688 318.625 170.929688 C 318.492188 170.929688 318.359375 170.941406 318.21875 170.941406 C 285.980469 172.59375 256.601562 185.203125 233.785156 205.148438 C 234.101562 242.691406 219.992188 280.253906 191.617188 308.8125 C 227.933594 307.765625 260.8125 292.773438 285.046875 268.996094 C 308.609375 245.847656 324.03125 214.410156 326.484375 179.339844 Z M 305.3125 312.6875 C 302.566406 313.691406 299.695312 314.644531 296.832031 315.496094 L 295.941406 315.761719 C 295.292969 315.945312 294.640625 316.136719 293.914062 316.328125 C 292.949219 316.59375 291.996094 316.835938 291.050781 317.070312 L 290.816406 317.121094 L 290.351562 317.230469 C 279.8125 319.820312 268.976562 321.128906 258.152344 321.128906 C 246.101562 321.128906 234.285156 319.535156 222.820312 316.378906 C 249.289062 309.847656 273.804688 296.113281 293.261719 276.675781 C 302.878906 267.039062 311.128906 256.214844 317.832031 244.445312 C 324.578125 245.023438 331.234375 246.089844 337.65625 247.621094 C 337.746094 247.652344 337.835938 247.671875 337.929688 247.691406 C 340.445312 248.300781 343.03125 249 345.558594 249.78125 C 346.867188 250.1875 348.175781 250.625 349.441406 251.039062 C 355.902344 253.261719 362.285156 256 368.351562 259.175781 C 369.425781 259.742188 369.863281 260.871094 369.78125 261.832031 C 354.066406 285.257812 331.78125 302.835938 305.3125 312.6875 Z M 370.785156 254.582031 C 364.363281 251.234375 357.792969 248.414062 351.125 246.128906 C 349.789062 245.683594 348.449219 245.238281 347.109375 244.820312 C 344.460938 244.011719 341.8125 243.289062 339.136719 242.640625 C 339.105469 242.621094 339.074219 242.621094 339.054688 242.621094 C 331.050781 240.691406 322.984375 239.527344 314.902344 239.019531 C 308.234375 251.34375 299.765625 262.808594 289.589844 273.011719 C 266.167969 296.40625 235.886719 310.933594 203.34375 314.613281 C 203.089844 314.636719 202.847656 314.664062 202.59375 314.695312 C 220.519531 322.546875 239.425781 326.320312 258.152344 326.320312 C 269.453125 326.320312 280.683594 324.953125 291.589844 322.273438 C 291.824219 322.210938 292.054688 322.171875 292.289062 322.113281 C 293.292969 321.859375 294.296875 321.613281 295.300781 321.332031 C 296.277344 321.085938 297.28125 320.773438 298.253906 320.5 C 301.246094 319.605469 304.199219 318.632812 307.101562 317.566406 C 333.921875 307.585938 357.8125 289.375 374.660156 263.894531 C 375.714844 260.382812 374.214844 256.394531 370.785156 254.582031 Z M 186.695312 299.03125 C 151.832031 261.316406 141.441406 206.832031 160.363281 158.714844 C 161.367188 156.148438 162.421875 153.683594 163.496094 151.371094 C 169.054688 139.390625 176.371094 128.304688 185.257812 118.371094 C 185.652344 118.140625 186.058594 118.089844 186.351562 118.089844 C 186.71875 118.089844 187.425781 118.179688 187.996094 118.808594 C 203.210938 135.679688 213.945312 156.261719 219.046875 178.285156 C 219.351562 179.613281 219.613281 180.941406 219.890625 182.324219 C 220.082031 183.226562 220.242188 184.148438 220.40625 185.050781 L 220.476562 185.4375 C 221.289062 190.203125 221.835938 195.164062 222.109375 200.226562 C 222.273438 202.8125 222.355469 205.328125 222.355469 207.90625 C 222.355469 241.972656 209.734375 274.128906 186.695312 299.03125 Z M 192.632812 300.167969 C 193.320312 299.386719 193.992188 298.597656 194.660156 297.796875 C 195.703125 296.566406 196.71875 295.320312 197.714844 294.0625 C 198.269531 293.351562 198.828125 292.632812 199.378906 291.910156 C 200.484375 290.441406 201.558594 288.960938 202.601562 287.457031 C 202.988281 286.898438 203.382812 286.351562 203.757812 285.792969 C 205.015625 283.929688 206.222656 282.042969 207.382812 280.132812 C 207.503906 279.929688 207.644531 279.738281 207.765625 279.535156 C 207.757812 279.546875 207.746094 279.554688 207.734375 279.566406 C 220.921875 257.574219 227.546875 232.738281 227.546875 207.90625 C 227.546875 205.226562 227.464844 202.582031 227.292969 199.902344 C 227.019531 194.769531 226.460938 189.636719 225.589844 184.5625 C 225.398438 183.480469 225.203125 182.363281 224.980469 181.277344 C 224.707031 179.878906 224.421875 178.519531 224.117188 177.148438 C 218.933594 154.761719 208.171875 133.425781 191.859375 115.328125 C 190.390625 113.707031 188.371094 112.894531 186.351562 112.894531 C 184.71875 112.894531 183.09375 113.421875 181.765625 114.496094 C 172.199219 125.089844 164.53125 136.804688 158.789062 149.179688 C 157.613281 151.6875 156.527344 154.253906 155.523438 156.820312 C 135.84375 206.902344 146.242188 266.0625 186.695312 306.53125 C 186.707031 306.519531 186.71875 306.507812 186.726562 306.5 C 186.71875 306.507812 186.707031 306.53125 186.695312 306.539062 L 186.707031 306.539062 L 187.964844 305.25 C 188.480469 304.714844 188.96875 304.144531 189.476562 303.597656 C 190.550781 302.460938 191.605469 301.324219 192.632812 300.167969 " fill-opacity="1" fill-rule="nonzero"/></g></svg>