<svg xmlns="http://www.w3.org/2000/svg" xmlns:xlink="http://www.w3.org/1999/xlink" width="500" zoomAndPan="magnify" viewBox="0 0 375 374.999991" height="500" preserveAspectRatio="xMidYMid meet" version="1.0"><defs><clipPath id="35b6d37101"><path d="M 0 82.199219 L 375 82.199219 L 375 292.78125 L 0 292.78125 Z M 0 82.199219 " clip-rule="nonzero"/></clipPath></defs><path fill="#d25c0d" d="M 187.65625 234.273438 C 177.003906 234.273438 168.339844 225.609375 168.339844 214.960938 C 168.339844 204.308594 177.003906 195.644531 187.65625 195.644531 C 198.304688 195.644531 206.96875 204.308594 206.96875 214.960938 C 206.96875 225.609375 198.304688 234.273438 187.65625 234.273438 Z M 187.65625 187.835938 C 172.699219 187.835938 160.527344 200.003906 160.527344 214.960938 C 160.527344 229.917969 172.699219 242.085938 187.65625 242.085938 C 202.609375 242.085938 214.777344 229.917969 214.777344 214.960938 C 214.777344 200.003906 202.609375 187.835938 187.65625 187.835938 " fill-opacity="1" fill-rule="nonzero"/><g clip-path="url(#35b6d37101)"><path fill="#d25c0d" d="M 212.679688 283.246094 C 240.488281 273.023438 260.378906 246.269531 260.378906 214.960938 C 260.378906 183.664062 240.507812 156.925781 212.714844 146.6875 C 250.316406 151.878906 283.476562 167.625 306.269531 181.238281 C 329.492188 195.105469 346.140625 209.125 352.691406 214.957031 C 339.183594 226.941406 282.703125 273.621094 212.679688 283.246094 Z M 22.613281 214.960938 C 29.160156 209.132812 45.8125 195.109375 69.042969 181.238281 C 91.832031 167.625 124.996094 151.878906 162.589844 146.6875 C 134.804688 156.925781 114.929688 183.664062 114.929688 214.960938 C 114.929688 246.257812 134.804688 272.996094 162.589844 283.230469 C 124.996094 278.039062 91.832031 262.292969 69.042969 248.683594 C 45.8125 234.8125 29.160156 220.789062 22.613281 214.960938 Z M 122.738281 214.960938 C 122.738281 179.167969 151.859375 150.046875 187.65625 150.046875 C 223.449219 150.046875 252.566406 179.167969 252.566406 214.960938 C 252.566406 250.753906 223.449219 279.875 187.65625 279.875 C 151.859375 279.875 122.738281 250.753906 122.738281 214.960938 Z M 373.652344 132.59375 C 372.019531 131.179688 369.554688 131.359375 368.144531 132.988281 L 324.421875 183.46875 C 320.089844 180.582031 315.425781 177.613281 310.449219 174.640625 C 306.1875 172.089844 301.5625 169.464844 296.628906 166.851562 L 328.417969 115.804688 C 329.558594 113.976562 328.996094 111.566406 327.167969 110.425781 C 325.335938 109.289062 322.925781 109.847656 321.789062 111.679688 L 289.660156 163.265625 C 280.710938 158.8125 270.871094 154.480469 260.332031 150.667969 L 280.128906 98.925781 C 280.898438 96.914062 279.890625 94.652344 277.878906 93.882812 C 275.863281 93.109375 273.605469 94.121094 272.835938 96.132812 L 252.945312 148.113281 C 239.546875 143.726562 225.144531 140.265625 210.066406 138.46875 L 217.589844 86.847656 C 217.902344 84.714844 216.425781 82.734375 214.292969 82.421875 C 212.160156 82.113281 210.175781 83.589844 209.863281 85.722656 L 202.285156 137.703125 C 197.464844 137.320312 192.585938 137.113281 187.65625 137.113281 C 180.789062 137.113281 174.023438 137.519531 167.378906 138.234375 L 162.761719 85.761719 C 162.574219 83.613281 160.679688 82.023438 158.53125 82.214844 C 156.382812 82.402344 154.792969 84.296875 154.984375 86.445312 L 159.625 139.222656 C 145.9375 141.246094 132.859375 144.59375 120.640625 148.695312 L 103.789062 95.800781 C 103.132812 93.75 100.941406 92.609375 98.882812 93.269531 C 96.828125 93.921875 95.691406 96.117188 96.347656 98.171875 L 113.273438 151.292969 C 102.757812 155.179688 92.96875 159.566406 84.085938 164.054688 L 55.382812 111.507812 C 54.347656 109.617188 51.976562 108.917969 50.082031 109.953125 C 48.191406 110.988281 47.492188 113.359375 48.527344 115.253906 L 77.15625 167.664062 C 72.792969 170.007812 68.679688 172.351562 64.859375 174.640625 C 58.824219 178.246094 53.253906 181.84375 48.171875 185.304688 L 7 131.894531 C 5.679688 130.1875 3.230469 129.867188 1.519531 131.1875 C -0.1875 132.503906 -0.503906 134.953125 0.8125 136.664062 L 41.761719 189.78125 C 24.679688 202.007812 14.6875 211.601562 14.117188 212.152344 C 13.355469 212.886719 12.925781 213.902344 12.925781 214.960938 C 12.925781 216.019531 13.355469 217.03125 14.117188 217.769531 C 14.910156 218.535156 33.917969 236.777344 64.859375 255.28125 C 93.484375 272.402344 138.027344 292.804688 187.65625 292.804688 C 237.28125 292.804688 281.824219 272.402344 310.449219 255.28125 C 341.394531 236.777344 360.398438 218.535156 361.191406 217.769531 C 361.953125 217.03125 362.382812 216.019531 362.382812 214.960938 C 362.382812 213.902344 361.953125 212.886719 361.191406 212.152344 C 360.59375 211.570312 349.59375 201.015625 330.90625 187.910156 L 374.046875 138.101562 C 375.460938 136.472656 375.28125 134.003906 373.652344 132.59375 " fill-opacity="1" fill-rule="nonzero"/></g></svg>