<svg xmlns="http://www.w3.org/2000/svg" xmlns:xlink="http://www.w3.org/1999/xlink" width="500" zoomAndPan="magnify" viewBox="0 0 375 374.999991" height="500" preserveAspectRatio="xMidYMid meet" version="1.0"><defs><clipPath id="d4f7f6e955"><path d="M 157 2.8125 L 171 2.8125 L 171 86 L 157 86 Z M 157 2.8125 " clip-rule="nonzero"/></clipPath><clipPath id="efac6c4b5f"><path d="M 204 289 L 218 289 L 218 372.5625 L 204 372.5625 Z M 204 289 " clip-rule="nonzero"/></clipPath></defs><path fill="#000000" d="M 208.386719 144.476562 C 216.253906 129.839844 206.160156 120.585938 206.058594 120.492188 L 206.039062 120.480469 C 202.875 117.988281 199.667969 117.050781 196.503906 117.703125 C 191.265625 118.78125 187.753906 123.832031 186.703125 125.53125 C 185.65625 123.832031 182.144531 118.78125 176.902344 117.703125 C 173.742188 117.054688 170.535156 117.988281 167.351562 120.492188 C 167.25 120.585938 157.15625 129.839844 165.046875 144.515625 C 165.242188 144.789062 169.871094 151.203125 173.152344 153.28125 C 176.4375 155.363281 184.285156 161.972656 186.386719 165.539062 L 186.703125 166.078125 L 187.023438 165.539062 C 189.121094 161.972656 196.96875 155.363281 200.257812 153.28125 C 203.535156 151.203125 208.167969 144.789062 208.386719 144.476562 Z M 208.386719 144.476562 " fill-opacity="1" fill-rule="nonzero"/><path fill="#000000" d="M 171.464844 190.398438 C 168.839844 187.375 166.125 184.246094 164.566406 180.457031 C 164.425781 180.117188 164.296875 179.773438 164.171875 179.433594 C 163.941406 178.828125 163.707031 178.199219 163.410156 177.597656 L 163.152344 177.085938 C 163.015625 176.816406 162.878906 176.546875 162.75 176.273438 C 162.621094 176.011719 162.515625 175.738281 162.410156 175.472656 C 162.277344 175.144531 162.148438 174.820312 161.992188 174.507812 L 161.722656 173.96875 C 160.46875 171.457031 159.175781 168.855469 156.15625 167.726562 C 155.507812 167.484375 153.300781 166.738281 152.246094 167.359375 C 150.835938 168.183594 150.003906 169.34375 149.773438 170.800781 C 149.105469 175.019531 153.722656 180.28125 153.941406 180.527344 C 157.109375 183.539062 158.949219 188.375 158.984375 188.464844 C 161.160156 192.625 160.089844 198.074219 159.785156 199.386719 C 157.792969 199.234375 157.648438 199.222656 157.644531 199.222656 C 157.644531 199.222656 157.648438 199.222656 157.648438 199.222656 C 156.890625 199.164062 155.96875 198.628906 155.226562 198.195312 C 155.039062 198.085938 154.859375 197.984375 154.6875 197.890625 C 153.910156 197.464844 153.136719 197.027344 152.363281 196.585938 C 151.207031 195.933594 150.011719 195.253906 148.816406 194.628906 C 147.933594 194.164062 146.898438 193.59375 145.9375 192.875 C 145.179688 192.3125 144.453125 191.679688 143.75 191.070312 C 142.953125 190.375 142.128906 189.660156 141.246094 189.027344 C 139.515625 187.789062 138.203125 186.832031 136.980469 185.921875 C 134.007812 183.707031 131.292969 181.019531 128.667969 178.421875 L 128.402344 178.15625 C 127.847656 177.609375 127.328125 177.09375 126.859375 176.484375 C 126.613281 176.167969 126.402344 175.832031 126.175781 175.476562 C 125.921875 175.082031 125.660156 174.675781 125.359375 174.300781 L 124.972656 173.824219 C 123.941406 172.554688 122.878906 171.246094 122.21875 169.742188 C 122.085938 169.441406 121.929688 169.152344 121.769531 168.863281 C 121.625 168.601562 121.484375 168.335938 121.359375 168.0625 C 120.933594 167.105469 120.542969 166.105469 120.160156 165.136719 C 119.71875 164.015625 119.261719 162.855469 118.746094 161.738281 C 118.585938 161.386719 118.421875 161.007812 118.25 160.613281 C 117.453125 158.773438 116.460938 156.480469 114.902344 155.28125 C 113.457031 154.171875 112.148438 153.640625 111.011719 153.691406 C 110.277344 153.726562 109.328125 153.789062 108.457031 153.964844 C 107.574219 154.140625 107.492188 154.414062 107.472656 155.234375 C 107.460938 155.792969 107.464844 156.347656 107.464844 156.90625 L 107.464844 157.816406 L 109.347656 162.882812 C 109.546875 163.421875 109.757812 163.957031 109.972656 164.488281 C 110.4375 165.644531 110.917969 166.835938 111.226562 168.050781 C 111.488281 169.085938 111.941406 170.042969 112.375 170.972656 C 112.679688 171.617188 112.996094 172.285156 113.238281 172.964844 C 113.921875 174.875 114.773438 176.832031 116.003906 179.3125 C 117.078125 181.476562 117.945312 183.113281 118.816406 184.609375 C 119.03125 184.972656 119.242188 185.34375 119.457031 185.71875 C 120.292969 187.1875 121.160156 188.707031 122.191406 190.046875 C 127.179688 196.507812 142.007812 208.957031 142.644531 209.488281 C 145.304688 211.714844 147.648438 214.433594 149.601562 217.574219 L 149.652344 217.636719 C 162.371094 230.394531 167.828125 247.351562 171.835938 263.769531 L 172.457031 266.316406 L 172.5625 263.695312 C 172.5625 263.628906 172.566406 263.566406 172.570312 263.507812 L 172.726562 263.492188 L 173.09375 263.449219 C 172.523438 258.316406 173.652344 252.347656 174.746094 246.578125 C 175.246094 243.921875 175.722656 241.414062 176.027344 239.035156 C 177.066406 230.867188 178.46875 222.613281 179.828125 214.625 L 180.128906 212.84375 C 181.621094 204.050781 175.757812 195.6875 175.699219 195.605469 C 174.402344 193.78125 172.910156 192.0625 171.464844 190.398438 Z M 171.464844 190.398438 " fill-opacity="1" fill-rule="nonzero"/><path fill="#000000" d="M 118.375 158.300781 C 118.472656 158.46875 118.574219 158.636719 118.671875 158.867188 C 119.167969 160.023438 119.683594 161.21875 120.03125 162.394531 C 120.574219 164.222656 122.777344 168.996094 122.871094 169.199219 C 124.320312 172.269531 127.804688 175.679688 127.953125 175.824219 L 128.664062 176.515625 L 128.578125 175.527344 C 128.300781 172.402344 127.78125 166.328125 127.78125 165.714844 C 127.785156 165.203125 127.503906 164.113281 127.121094 162.601562 C 126.867188 161.613281 126.582031 160.492188 126.335938 159.375 C 125.765625 156.765625 126.34375 154.527344 126.347656 154.503906 L 126.363281 154.453125 L 126.363281 154.402344 C 126.359375 154.28125 126.304688 151.378906 126.039062 150.042969 C 125.761719 148.660156 123.613281 145.738281 123.539062 145.636719 C 122.949219 144.714844 122.222656 144.179688 121.371094 144.039062 C 120.007812 143.8125 118.863281 144.714844 118.769531 144.792969 C 117.464844 146.230469 118.210938 150.332031 118.292969 150.746094 C 118.359375 152.027344 118.320312 153.410156 118.167969 155.105469 C 118.144531 155.363281 118.101562 155.621094 118.0625 155.882812 C 118.007812 156.214844 117.957031 156.558594 117.9375 156.898438 C 117.917969 157.21875 117.976562 157.515625 118.121094 157.832031 C 118.195312 157.992188 118.285156 158.144531 118.375 158.300781 Z M 118.375 158.300781 " fill-opacity="1" fill-rule="nonzero"/><path fill="#000000" d="M 129.074219 177.105469 L 129.109375 177.242188 C 130.484375 180.105469 135.21875 183.0625 135.421875 183.1875 L 135.972656 183.53125 L 136.058594 177.871094 L 136 176.839844 C 135.917969 175.34375 136.148438 173.65625 136.371094 172.195312 C 136.417969 171.890625 136.441406 171.585938 136.46875 171.277344 C 136.496094 170.988281 136.519531 170.699219 136.5625 170.414062 L 136.597656 170.167969 C 136.664062 169.738281 136.730469 169.316406 136.765625 168.878906 C 136.789062 168.640625 136.839844 168.410156 136.890625 168.179688 C 136.933594 167.976562 136.980469 167.773438 137.007812 167.5625 C 137.167969 166.394531 137.328125 165.144531 137.382812 163.824219 C 137.390625 163.601562 137.417969 163.359375 137.441406 163.101562 C 137.507812 162.488281 137.578125 161.792969 137.445312 161.210938 C 137.496094 160.800781 138.195312 158.257812 138.855469 155.972656 C 139.359375 153.183594 138.878906 151.554688 138.84375 151.449219 C 137.929688 149.269531 136.871094 148.070312 135.703125 147.878906 C 134.554688 147.695312 133.777344 148.566406 133.746094 148.601562 C 132.492188 150.039062 132.488281 151.453125 132.488281 153.09375 L 132.488281 153.3125 C 132.484375 154.550781 132.164062 155.722656 131.828125 156.964844 C 131.671875 157.539062 131.511719 158.136719 131.382812 158.742188 C 131.121094 159.96875 130.855469 161.199219 130.585938 162.425781 C 130.476562 162.914062 130.289062 163.417969 130.105469 163.910156 C 130.003906 164.175781 129.90625 164.445312 129.816406 164.710938 C 128.988281 167.21875 128.660156 169.792969 128.816406 172.582031 C 128.902344 174.089844 128.988281 175.597656 129.074219 177.105469 Z M 129.074219 177.105469 " fill-opacity="1" fill-rule="nonzero"/><path fill="#000000" d="M 136.820312 174.355469 L 136.722656 175.613281 L 136.734375 175.660156 C 136.921875 176.613281 136.554688 181.699219 136.398438 183.574219 L 136.390625 183.695312 L 136.453125 183.800781 C 138.65625 187.382812 143.539062 189.753906 143.746094 189.855469 L 145.6875 190.78125 L 144.144531 189.246094 C 143.953125 189.054688 143.453125 187.757812 143.15625 186.984375 C 142.722656 185.863281 142.546875 185.421875 142.390625 185.253906 C 142.257812 185.113281 142.292969 184.363281 142.308594 184.042969 C 142.320312 183.804688 142.328125 183.589844 142.320312 183.445312 C 142.304688 183.246094 142.285156 183.046875 142.265625 182.84375 C 142.199219 182.097656 142.125 181.328125 142.238281 180.621094 C 142.644531 178.035156 143.378906 175.40625 144.59375 172.132812 L 147.046875 167.382812 C 147.867188 166.417969 147.832031 164.335938 147.820312 163.925781 C 148.460938 160.8125 145.773438 159.960938 145.746094 159.949219 L 145.671875 159.9375 C 143.949219 159.785156 143.09375 161.753906 142.464844 163.195312 C 142.308594 163.550781 142.164062 163.886719 142.03125 164.125 C 141.652344 164.808594 141.242188 165.476562 140.835938 166.144531 C 140.183594 167.210938 139.511719 168.3125 138.964844 169.472656 C 138.234375 171.011719 137.515625 172.652344 136.820312 174.355469 Z M 136.820312 174.355469 " fill-opacity="1" fill-rule="nonzero"/><path fill="#000000" d="M 268.15625 155.210938 C 268.136719 154.414062 268.058594 154.140625 267.171875 153.964844 C 266.304688 153.789062 265.351562 153.726562 264.621094 153.691406 C 263.488281 153.640625 262.175781 154.171875 260.730469 155.28125 C 259.171875 156.480469 258.175781 158.773438 257.378906 160.613281 C 257.207031 161.007812 257.042969 161.386719 256.882812 161.738281 C 256.367188 162.855469 255.910156 164.015625 255.46875 165.136719 C 255.089844 166.105469 254.695312 167.105469 254.269531 168.0625 C 254.148438 168.335938 254.003906 168.601562 253.859375 168.863281 C 253.703125 169.152344 253.546875 169.441406 253.414062 169.742188 C 252.753906 171.246094 251.6875 172.554688 250.660156 173.824219 L 250.273438 174.300781 C 249.96875 174.675781 249.707031 175.085938 249.457031 175.480469 C 249.230469 175.832031 249.015625 176.167969 248.773438 176.484375 C 248.304688 177.09375 247.785156 177.609375 247.234375 178.152344 L 246.964844 178.417969 C 244.339844 181.015625 241.625 183.703125 238.652344 185.921875 C 237.433594 186.832031 236.117188 187.789062 234.386719 189.027344 C 233.503906 189.660156 232.679688 190.375 231.878906 191.070312 C 231.175781 191.679688 230.449219 192.3125 229.695312 192.875 C 228.730469 193.59375 227.699219 194.164062 226.816406 194.628906 C 225.621094 195.253906 224.425781 195.933594 223.265625 196.585938 C 222.492188 197.027344 221.71875 197.464844 220.941406 197.890625 C 220.773438 197.984375 220.59375 198.085938 220.40625 198.195312 C 219.664062 198.628906 218.738281 199.164062 218.011719 199.222656 C 217.996094 199.222656 217.996094 199.222656 215.847656 199.386719 C 215.542969 198.074219 214.472656 192.625 216.664062 188.425781 C 216.683594 188.375 218.523438 183.539062 221.710938 180.503906 C 221.90625 180.28125 226.527344 175.019531 225.855469 170.800781 C 225.625 169.34375 224.792969 168.183594 223.386719 167.359375 C 222.328125 166.738281 220.125 167.484375 219.472656 167.726562 C 216.457031 168.855469 215.164062 171.453125 213.910156 173.964844 L 213.640625 174.507812 C 213.484375 174.820312 213.351562 175.144531 213.222656 175.46875 C 213.117188 175.738281 213.007812 176.007812 212.882812 176.273438 C 212.75 176.546875 212.613281 176.820312 212.476562 177.089844 L 212.222656 177.597656 C 211.925781 178.199219 211.6875 178.828125 211.460938 179.4375 C 211.332031 179.777344 211.203125 180.117188 211.066406 180.457031 C 209.507812 184.246094 206.792969 187.375 204.167969 190.398438 C 202.722656 192.0625 201.230469 193.78125 199.933594 195.605469 C 199.871094 195.6875 194.007812 204.050781 195.5 212.84375 L 195.804688 214.625 C 197.160156 222.613281 198.5625 230.867188 199.605469 239.035156 C 199.910156 241.414062 200.382812 243.921875 200.886719 246.578125 C 201.976562 252.347656 203.109375 258.308594 202.539062 263.441406 C 202.539062 263.445312 202.539062 263.449219 202.539062 263.449219 L 202.902344 263.492188 L 203.0625 263.507812 C 203.0625 263.566406 203.066406 263.628906 203.070312 263.695312 L 203.171875 266.316406 L 203.796875 263.769531 C 207.800781 247.351562 213.261719 230.398438 225.976562 217.636719 L 226.03125 217.574219 C 227.984375 214.433594 230.324219 211.714844 233 209.476562 C 233.628906 208.949219 248.472656 196.476562 253.4375 190.046875 C 254.472656 188.707031 255.335938 187.191406 256.175781 185.722656 C 256.390625 185.347656 256.601562 184.972656 256.816406 184.609375 C 257.683594 183.113281 258.550781 181.480469 259.628906 179.3125 C 260.859375 176.832031 261.710938 174.875 262.394531 172.964844 C 262.636719 172.285156 262.949219 171.617188 263.253906 170.972656 C 263.691406 170.042969 264.144531 169.085938 264.40625 168.050781 C 264.714844 166.835938 265.195312 165.640625 265.65625 164.488281 C 265.871094 163.953125 266.085938 163.421875 266.285156 162.882812 L 268.140625 157.878906 L 268.164062 156.941406 C 268.167969 156.371094 268.167969 155.804688 268.15625 155.210938 Z M 268.15625 155.210938 " fill-opacity="1" fill-rule="nonzero"/><path fill="#000000" d="M 252.761719 169.199219 C 252.855469 168.996094 255.058594 164.222656 255.601562 162.394531 C 255.949219 161.214844 256.464844 160.015625 256.972656 158.835938 C 257.054688 158.636719 257.15625 158.46875 257.253906 158.300781 C 257.347656 158.144531 257.4375 157.992188 257.507812 157.832031 C 257.652344 157.519531 257.714844 157.222656 257.695312 156.898438 C 257.675781 156.558594 257.621094 156.214844 257.570312 155.882812 C 257.527344 155.621094 257.488281 155.363281 257.464844 155.105469 C 257.3125 153.410156 257.269531 152.023438 257.332031 150.796875 C 257.421875 150.332031 258.164062 146.230469 256.820312 144.753906 C 256.769531 144.714844 255.628906 143.8125 254.257812 144.039062 C 253.410156 144.179688 252.679688 144.714844 252.105469 145.617188 C 252.015625 145.738281 249.867188 148.660156 249.589844 150.042969 C 249.324219 151.378906 249.273438 154.28125 249.269531 154.402344 L 249.269531 154.453125 L 249.28125 154.503906 C 249.289062 154.527344 249.863281 156.765625 249.292969 159.375 C 249.050781 160.492188 248.765625 161.613281 248.511719 162.601562 C 248.125 164.113281 247.847656 165.203125 247.847656 165.714844 C 247.851562 166.328125 247.332031 172.402344 247.054688 175.527344 L 246.96875 176.515625 L 247.679688 175.824219 C 247.824219 175.679688 251.3125 172.269531 252.761719 169.199219 Z M 252.761719 169.199219 " fill-opacity="1" fill-rule="nonzero"/><path fill="#000000" d="M 238.183594 161.210938 C 238.054688 161.792969 238.125 162.488281 238.1875 163.101562 C 238.214844 163.359375 238.242188 163.601562 238.25 163.824219 C 238.304688 165.144531 238.464844 166.394531 238.625 167.5625 C 238.652344 167.773438 238.695312 167.976562 238.742188 168.179688 C 238.789062 168.410156 238.84375 168.640625 238.863281 168.878906 C 238.902344 169.316406 238.964844 169.738281 239.03125 170.164062 L 239.070312 170.414062 C 239.113281 170.699219 239.136719 170.988281 239.160156 171.277344 C 239.1875 171.585938 239.214844 171.890625 239.261719 172.195312 C 239.484375 173.660156 239.714844 175.347656 239.628906 176.839844 L 239.570312 177.898438 L 239.660156 183.53125 L 240.210938 183.1875 C 240.410156 183.0625 245.148438 180.105469 246.519531 177.242188 L 246.554688 177.105469 C 246.644531 175.597656 246.730469 174.089844 246.8125 172.582031 C 246.96875 169.792969 246.644531 167.214844 245.8125 164.710938 C 245.726562 164.445312 245.625 164.179688 245.527344 163.910156 C 245.34375 163.421875 245.15625 162.914062 245.046875 162.425781 C 244.773438 161.199219 244.507812 159.96875 244.25 158.742188 C 244.121094 158.136719 243.957031 157.539062 243.804688 156.964844 C 243.464844 155.722656 243.148438 154.550781 243.144531 153.3125 L 243.144531 153.09375 C 243.140625 151.453125 243.136719 150.039062 241.886719 148.601562 C 241.855469 148.566406 241.082031 147.695312 239.929688 147.878906 C 238.761719 148.070312 237.703125 149.269531 236.773438 151.488281 C 236.753906 151.554688 236.273438 153.183594 236.785156 156.007812 C 237.433594 158.257812 238.132812 160.800781 238.183594 161.210938 Z M 238.183594 161.210938 " fill-opacity="1" fill-rule="nonzero"/><path fill="#000000" d="M 228.585938 167.382812 L 231.019531 172.09375 C 232.253906 175.40625 232.988281 178.035156 233.394531 180.621094 C 233.503906 181.328125 233.433594 182.101562 233.363281 182.847656 C 233.347656 183.050781 233.328125 183.25 233.3125 183.445312 C 233.300781 183.589844 233.3125 183.804688 233.324219 184.042969 C 233.335938 184.363281 233.375 185.113281 233.242188 185.253906 C 233.085938 185.421875 232.90625 185.863281 232.472656 186.988281 C 232.175781 187.757812 231.675781 189.054688 231.488281 189.242188 L 229.332031 191.082031 L 231.886719 189.855469 C 232.09375 189.753906 236.972656 187.382812 239.179688 183.800781 L 239.242188 183.695312 L 239.234375 183.574219 C 239.074219 181.699219 238.710938 176.613281 238.898438 175.660156 L 238.90625 175.613281 L 238.839844 174.472656 L 238.8125 174.355469 C 238.117188 172.65625 237.398438 171.011719 236.667969 169.472656 C 236.117188 168.3125 235.445312 167.210938 234.796875 166.144531 C 234.386719 165.476562 233.980469 164.808594 233.601562 164.125 C 233.46875 163.886719 233.320312 163.550781 233.167969 163.195312 C 232.539062 161.753906 231.6875 159.78125 229.957031 159.9375 L 229.886719 159.949219 C 229.859375 159.960938 227.167969 160.8125 227.8125 163.925781 C 227.796875 164.335938 227.765625 166.417969 228.585938 167.382812 Z M 228.585938 167.382812 " fill-opacity="1" fill-rule="nonzero"/><path fill="#000000" d="M 189.621094 100.941406 C 190.335938 96.417969 190.859375 91.628906 191.316406 85.40625 C 191.734375 80.050781 191.945312 74.769531 192.109375 69.855469 C 192.21875 64.910156 192.304688 59.601562 192.191406 54.289062 C 192.082031 48.035156 191.832031 43.222656 191.378906 38.683594 L 191.15625 36.472656 L 190.8125 38.667969 C 190.101562 43.175781 189.582031 47.96875 189.121094 54.199219 C 188.707031 59.492188 188.496094 64.800781 188.324219 69.75 C 188.210938 74.65625 188.125 79.9375 188.238281 85.320312 C 188.347656 91.5625 188.597656 96.375 189.054688 100.925781 L 189.277344 103.121094 Z M 189.621094 100.941406 " fill-opacity="1" fill-rule="nonzero"/><path fill="#000000" d="M 143.429688 61.804688 C 144.851562 66.921875 146.464844 71.980469 147.996094 76.691406 C 149.566406 81.339844 151.289062 86.332031 153.234375 91.347656 C 155.46875 97.179688 157.351562 101.613281 159.335938 105.730469 L 160.292969 107.722656 L 159.871094 105.554688 C 159 101.0625 157.851562 96.382812 156.15625 90.375 C 154.714844 85.191406 153.109375 80.160156 151.585938 75.492188 C 150 70.808594 148.265625 65.789062 146.34375 60.835938 C 144.105469 54.996094 142.226562 50.5625 140.25 46.449219 L 139.285156 44.449219 L 139.710938 46.628906 C 140.585938 51.109375 141.734375 55.789062 143.429688 61.804688 Z M 143.429688 61.804688 " fill-opacity="1" fill-rule="nonzero"/><path fill="#000000" d="M 115.4375 94.660156 C 112.339844 90.796875 108.992188 86.671875 105.5 82.683594 C 101.402344 77.964844 98.121094 74.4375 94.859375 71.253906 L 93.269531 69.703125 L 94.414062 71.605469 C 96.765625 75.511719 99.441406 79.519531 103.09375 84.59375 C 106.179688 88.914062 109.421875 93.117188 112.46875 97.019531 C 115.535156 100.847656 118.859375 104.949219 122.402344 109 C 126.488281 113.707031 129.769531 117.230469 133.046875 120.425781 L 134.628906 121.96875 L 133.492188 120.074219 C 131.136719 116.152344 128.460938 112.148438 124.816406 107.085938 C 121.691406 102.707031 118.460938 98.527344 115.4375 94.660156 Z M 115.4375 94.660156 " fill-opacity="1" fill-rule="nonzero"/><path fill="#000000" d="M 115.378906 144.140625 L 113.664062 142.75 C 110.113281 139.875 106.226562 137.023438 101.074219 133.515625 C 96.644531 130.472656 92.179688 127.652344 88.015625 125.054688 C 83.785156 122.484375 79.234375 119.753906 74.585938 117.199219 C 69.128906 114.167969 64.839844 111.980469 60.679688 110.101562 L 58.65625 109.1875 L 60.382812 110.585938 C 63.929688 113.453125 67.8125 116.300781 72.976562 119.816406 C 77.347656 122.816406 81.832031 125.660156 86.03125 128.28125 C 90.222656 130.835938 94.75 133.550781 99.457031 136.140625 C 104.90625 139.164062 109.199219 141.355469 113.367188 143.234375 Z M 115.378906 144.140625 " fill-opacity="1" fill-rule="nonzero"/><path fill="#000000" d="M 57.328125 160.214844 C 51.15625 159.238281 46.378906 158.648438 41.835938 158.308594 L 39.621094 158.140625 L 41.722656 158.863281 C 46.035156 160.34375 50.65625 161.691406 56.710938 163.226562 C 61.847656 164.554688 67.03125 165.683594 71.871094 166.710938 C 76.679688 167.675781 81.863281 168.679688 87.171875 169.5 C 93.332031 170.476562 98.109375 171.066406 102.664062 171.402344 L 104.867188 171.566406 L 102.78125 170.847656 C 98.457031 169.359375 93.835938 168.011719 87.792969 166.480469 C 82.59375 165.140625 77.433594 164.015625 72.628906 163 C 67.78125 162.03125 62.570312 161.027344 57.328125 160.214844 Z M 57.328125 160.214844 " fill-opacity="1" fill-rule="nonzero"/><path fill="#000000" d="M 55.808594 206.546875 C 49.679688 207.742188 44.988281 208.824219 40.597656 210.058594 L 38.460938 210.660156 L 40.679688 210.621094 C 45.246094 210.535156 50.046875 210.21875 56.257812 209.589844 C 61.539062 209.074219 66.796875 208.367188 71.695312 207.671875 C 76.546875 206.929688 81.765625 206.097656 87.023438 205.054688 C 93.144531 203.867188 97.835938 202.78125 102.234375 201.539062 L 104.359375 200.9375 L 102.152344 200.976562 C 97.578125 201.058594 92.777344 201.375 86.574219 202.003906 C 81.234375 202.523438 76.003906 203.234375 71.140625 203.925781 C 66.238281 204.679688 60.992188 205.519531 55.808594 206.546875 Z M 55.808594 206.546875 " fill-opacity="1" fill-rule="nonzero"/><path fill="#000000" d="M 70.210938 250.605469 C 64.859375 253.824219 60.820312 256.449219 57.117188 259.113281 L 55.316406 260.410156 L 57.386719 259.613281 C 61.640625 257.972656 66.046875 256.027344 71.671875 253.3125 C 76.449219 251.023438 81.152344 248.554688 85.523438 246.226562 C 89.828125 243.867188 94.445312 241.300781 99.035156 238.515625 C 104.378906 235.300781 108.417969 232.675781 112.125 230.003906 L 113.917969 228.714844 L 111.855469 229.507812 C 107.59375 231.144531 103.1875 233.085938 97.570312 235.800781 C 92.738281 238.117188 88.058594 240.574219 83.71875 242.890625 C 79.378906 245.277344 74.734375 247.859375 70.210938 250.605469 Z M 70.210938 250.605469 " fill-opacity="1" fill-rule="nonzero"/><path fill="#000000" d="M 101.09375 289.117188 C 104.804688 285.332031 108.378906 281.402344 111.691406 277.71875 C 114.929688 274.03125 118.386719 270.039062 121.753906 265.847656 C 125.675781 261 128.574219 257.148438 131.144531 253.367188 L 132.390625 251.539062 L 130.722656 252.988281 C 127.273438 255.992188 123.796875 259.328125 119.449219 263.796875 C 115.691406 267.632812 112.140625 271.546875 108.859375 275.203125 C 105.589844 278.929688 102.113281 282.949219 98.800781 287.074219 C 94.871094 291.933594 91.972656 295.78125 89.402344 299.554688 L 88.152344 301.390625 L 89.824219 299.929688 C 93.261719 296.929688 96.738281 293.597656 101.09375 289.117188 Z M 101.09375 289.117188 " fill-opacity="1" fill-rule="nonzero"/><path fill="#000000" d="M 156.476562 268.597656 C 154.261719 272.597656 152.132812 276.921875 149.574219 282.613281 C 147.355469 287.503906 145.351562 292.394531 143.519531 296.957031 C 141.726562 301.566406 139.832031 306.527344 138.125 311.558594 C 136.089844 317.472656 134.679688 322.082031 133.554688 326.5 L 133.007812 328.652344 L 134.082031 326.707031 C 136.289062 322.714844 138.414062 318.390625 140.976562 312.691406 C 143.171875 307.859375 145.1875 302.945312 147.039062 298.351562 C 148.820312 293.777344 150.710938 288.839844 152.4375 283.75 C 154.46875 277.851562 155.878906 273.242188 157.003906 268.808594 L 157.546875 266.667969 Z M 156.476562 268.597656 " fill-opacity="1" fill-rule="nonzero"/><path fill="#000000" d="M 186.574219 274.464844 L 186.351562 272.265625 L 186.007812 274.449219 C 185.296875 278.964844 184.773438 283.757812 184.3125 289.980469 C 183.898438 295.34375 183.6875 300.621094 183.523438 305.535156 C 183.414062 310.484375 183.328125 315.796875 183.441406 321.101562 C 183.550781 327.351562 183.800781 332.164062 184.253906 336.707031 L 184.476562 338.917969 L 184.820312 336.722656 C 185.527344 332.214844 186.050781 327.425781 186.511719 321.1875 C 186.921875 315.90625 187.136719 310.59375 187.308594 305.636719 C 187.417969 300.726562 187.507812 295.441406 187.394531 290.070312 C 187.285156 283.824219 187.03125 279.011719 186.574219 274.464844 Z M 186.574219 274.464844 " fill-opacity="1" fill-rule="nonzero"/><path fill="#000000" d="M 232.199219 313.585938 C 230.785156 308.492188 229.171875 303.421875 227.636719 298.699219 C 226.0625 294.042969 224.339844 289.046875 222.398438 284.042969 C 220.164062 278.214844 218.28125 273.777344 216.296875 269.65625 L 215.335938 267.667969 L 215.757812 269.835938 C 216.632812 274.324219 217.777344 279.003906 219.472656 285.011719 C 220.914062 290.1875 222.519531 295.222656 224.042969 299.898438 C 225.632812 304.59375 227.371094 309.621094 229.285156 314.554688 C 231.523438 320.390625 233.40625 324.828125 235.382812 328.9375 L 236.34375 330.941406 L 235.917969 328.761719 C 235.042969 324.277344 233.898438 319.597656 232.199219 313.585938 Z M 232.199219 313.585938 " fill-opacity="1" fill-rule="nonzero"/><path fill="#000000" d="M 260.195312 280.726562 C 263.289062 284.589844 266.636719 288.714844 270.128906 292.703125 C 274.222656 297.417969 277.503906 300.945312 280.773438 304.136719 L 282.363281 305.6875 L 281.214844 303.785156 C 278.867188 299.878906 276.191406 295.875 272.539062 290.796875 C 269.449219 286.472656 266.207031 282.269531 263.160156 278.371094 C 260.09375 274.535156 256.765625 270.429688 253.230469 266.390625 C 249.144531 261.683594 245.859375 258.15625 242.582031 254.964844 L 241.003906 253.421875 L 242.140625 255.316406 C 244.496094 259.238281 247.171875 263.246094 250.816406 268.304688 C 253.933594 272.671875 257.164062 276.855469 260.195312 280.726562 Z M 260.195312 280.726562 " fill-opacity="1" fill-rule="nonzero"/><path fill="#000000" d="M 274.558594 241.875 C 279 244.921875 283.457031 247.742188 287.617188 250.335938 C 291.839844 252.902344 296.386719 255.628906 301.042969 258.191406 C 306.5 261.21875 310.789062 263.40625 314.953125 265.289062 L 316.976562 266.203125 L 315.25 264.804688 C 311.707031 261.941406 307.824219 259.09375 302.65625 255.574219 C 298.265625 252.558594 293.785156 249.722656 289.597656 247.105469 C 285.417969 244.5625 280.898438 241.847656 276.175781 239.25 C 270.726562 236.226562 266.4375 234.039062 262.265625 232.15625 L 260.25 231.246094 L 261.96875 232.636719 C 265.519531 235.515625 269.402344 238.363281 274.558594 241.875 Z M 274.558594 241.875 " fill-opacity="1" fill-rule="nonzero"/><path fill="#000000" d="M 318.304688 215.171875 C 324.46875 216.152344 329.25 216.738281 333.796875 217.082031 L 336.011719 217.246094 L 333.910156 216.527344 C 329.597656 215.042969 324.976562 213.699219 318.921875 212.164062 C 313.792969 210.839844 308.605469 209.707031 303.761719 208.675781 C 298.953125 207.714844 293.773438 206.710938 288.460938 205.890625 C 282.292969 204.910156 277.515625 204.324219 272.964844 203.984375 L 270.765625 203.820312 L 272.851562 204.539062 C 277.171875 206.027344 281.792969 207.375 287.839844 208.910156 C 293.03125 210.25 298.191406 211.371094 303 212.390625 C 307.847656 213.355469 313.054688 214.363281 318.304688 215.171875 Z M 318.304688 215.171875 " fill-opacity="1" fill-rule="nonzero"/><path fill="#000000" d="M 319.820312 168.839844 C 325.957031 167.648438 330.648438 166.566406 335.03125 165.332031 L 337.167969 164.726562 L 334.949219 164.769531 C 330.394531 164.855469 325.589844 165.171875 319.375 165.800781 C 314.097656 166.3125 308.839844 167.023438 303.9375 167.714844 C 299.085938 168.457031 293.875 169.289062 288.605469 170.335938 C 282.488281 171.523438 277.796875 172.609375 273.394531 173.851562 L 271.273438 174.449219 L 273.480469 174.410156 C 278.050781 174.332031 282.851562 174.015625 289.054688 173.386719 C 294.402344 172.863281 299.632812 172.15625 304.492188 171.464844 C 309.382812 170.710938 314.625 169.875 319.820312 168.839844 Z M 319.820312 168.839844 " fill-opacity="1" fill-rule="nonzero"/><path fill="#000000" d="M 291.910156 132.496094 C 296.253906 130.113281 300.894531 127.527344 305.417969 124.785156 C 310.773438 121.566406 314.808594 118.941406 318.511719 116.277344 L 320.316406 114.980469 L 318.242188 115.777344 C 313.988281 117.417969 309.585938 119.359375 303.960938 122.078125 C 299.1875 124.363281 294.480469 126.832031 290.109375 129.164062 C 285.808594 131.519531 281.195312 134.085938 276.597656 136.875 C 271.25 140.089844 267.214844 142.714844 263.503906 145.386719 L 261.714844 146.675781 L 263.773438 145.882812 C 268.042969 144.242188 272.449219 142.300781 278.058594 139.585938 C 282.902344 137.269531 287.578125 134.808594 291.910156 132.496094 Z M 291.910156 132.496094 " fill-opacity="1" fill-rule="nonzero"/><path fill="#000000" d="M 256.179688 111.589844 C 259.945312 107.75 263.496094 103.84375 266.773438 100.1875 C 270.03125 96.46875 273.503906 92.460938 276.832031 88.3125 C 280.765625 83.453125 283.664062 79.601562 286.230469 75.835938 L 287.480469 74 L 285.804688 75.460938 C 282.367188 78.457031 278.890625 81.792969 274.535156 86.273438 C 270.824219 90.058594 267.25 93.988281 263.941406 97.671875 C 260.699219 101.363281 257.238281 105.359375 253.878906 109.542969 C 249.953125 114.394531 247.054688 118.246094 244.484375 122.023438 L 243.242188 123.851562 L 244.90625 122.398438 C 248.359375 119.394531 251.835938 116.0625 256.179688 111.589844 Z M 256.179688 111.589844 " fill-opacity="1" fill-rule="nonzero"/><path fill="#000000" d="M 219.15625 106.789062 C 221.375 102.78125 223.503906 98.457031 226.054688 92.773438 C 228.277344 87.882812 230.28125 82.992188 232.113281 78.433594 C 233.910156 73.808594 235.808594 68.839844 237.507812 63.832031 C 239.539062 57.921875 240.949219 53.316406 242.074219 48.890625 L 242.625 46.734375 L 241.546875 48.679688 C 239.34375 52.675781 237.214844 57 234.652344 62.699219 C 232.464844 67.519531 230.445312 72.4375 228.589844 77.039062 C 226.808594 81.613281 224.921875 86.550781 223.191406 91.636719 C 221.160156 97.542969 219.753906 102.152344 218.628906 106.582031 L 218.085938 108.722656 Z M 219.15625 106.789062 " fill-opacity="1" fill-rule="nonzero"/><path fill="#000000" d="M 219.285156 25.78125 C 220.492188 18.179688 221.257812 12.300781 221.777344 6.714844 L 222.117188 3.078125 L 221.058594 6.574219 C 219.4375 11.941406 217.933594 17.679688 216.1875 25.175781 C 214.683594 31.546875 213.367188 37.953125 212.167969 43.933594 C 211.035156 49.863281 209.84375 56.257812 208.820312 62.820312 C 207.617188 70.410156 206.847656 76.292969 206.332031 81.890625 L 206 85.503906 L 207.050781 82.03125 C 208.679688 76.652344 210.183594 70.917969 211.929688 63.429688 C 213.449219 56.984375 214.757812 50.605469 215.945312 44.671875 C 217.085938 38.683594 218.277344 32.25 219.285156 25.78125 Z M 219.285156 25.78125 " fill-opacity="1" fill-rule="nonzero"/><g clip-path="url(#d4f7f6e955)"><path fill="#000000" d="M 159.628906 25.613281 C 160.386719 32.105469 161.339844 38.582031 162.257812 44.617188 C 163.222656 50.59375 164.289062 57.019531 165.570312 63.511719 C 167.03125 71.058594 168.316406 76.847656 169.746094 82.28125 L 170.667969 85.792969 L 170.46875 82.167969 C 170.160156 76.554688 169.613281 70.648438 168.695312 63.019531 C 167.921875 56.449219 166.972656 50.003906 166.058594 44.015625 C 165.082031 37.988281 164.007812 31.527344 162.746094 25.125 C 161.28125 17.5625 159.992188 11.773438 158.574219 6.351562 L 157.648438 2.820312 L 157.851562 6.464844 C 158.160156 12.0625 158.707031 17.96875 159.628906 25.613281 Z M 159.628906 25.613281 " fill-opacity="1" fill-rule="nonzero"/></g><path fill="#000000" d="M 105.421875 44.46875 C 108.351562 50.304688 111.464844 56.066406 114.386719 61.425781 C 117.335938 66.710938 120.535156 72.386719 123.953125 78.046875 C 127.90625 84.640625 131.09375 89.640625 134.292969 94.257812 L 136.359375 97.238281 L 134.933594 93.902344 C 132.730469 88.738281 130.199219 83.375 126.726562 76.515625 C 123.746094 70.589844 120.65625 64.867188 117.753906 59.558594 C 114.777344 54.226562 111.558594 48.523438 108.183594 42.941406 C 104.222656 36.335938 101.039062 31.335938 97.851562 26.730469 L 95.773438 23.726562 L 97.210938 27.085938 C 99.414062 32.238281 101.945312 37.597656 105.421875 44.46875 Z M 105.421875 44.46875 " fill-opacity="1" fill-rule="nonzero"/><path fill="#000000" d="M 61.613281 81.097656 C 66.371094 85.585938 71.257812 89.933594 75.832031 93.964844 C 80.398438 97.914062 85.339844 102.144531 90.5 106.308594 C 96.464844 111.148438 101.167969 114.753906 105.753906 118 L 108.714844 120.097656 L 106.234375 117.445312 C 102.394531 113.34375 98.183594 109.171875 92.582031 103.921875 C 87.765625 99.378906 82.902344 95.054688 78.355469 91.058594 C 73.742188 87.070312 68.773438 82.816406 63.6875 78.71875 C 57.710938 73.871094 53.007812 70.261719 48.4375 67.023438 L 45.460938 64.910156 L 47.957031 67.574219 C 51.785156 71.664062 55.996094 75.832031 61.613281 81.097656 Z M 61.613281 81.097656 " fill-opacity="1" fill-rule="nonzero"/><path fill="#000000" d="M 32.960938 130.519531 C 38.949219 133.101562 45.035156 135.515625 50.71875 137.738281 C 56.371094 139.894531 62.464844 142.179688 68.71875 144.316406 C 75.980469 146.824219 81.632812 148.605469 87.046875 150.082031 L 90.542969 151.039062 L 87.308594 149.398438 C 82.300781 146.859375 76.917969 144.378906 69.859375 141.363281 C 63.78125 138.742188 57.730469 136.347656 52.097656 134.144531 C 46.394531 131.976562 40.265625 129.679688 34.097656 127.570312 C 26.824219 125.0625 21.171875 123.285156 15.769531 121.800781 L 12.25 120.835938 L 15.507812 122.488281 C 20.5 125.015625 25.882812 127.492188 32.960938 130.519531 Z M 32.960938 130.519531 " fill-opacity="1" fill-rule="nonzero"/><path fill="#000000" d="M 29.164062 187.078125 C 33.574219 187.257812 37.925781 187.375 42.074219 187.476562 C 48.125 187.5625 54.632812 187.625 61.238281 187.492188 C 68.914062 187.363281 74.832031 187.097656 80.429688 186.636719 L 84.042969 186.335938 L 80.445312 185.902344 C 74.867188 185.230469 68.964844 184.742188 61.296875 184.324219 C 54.699219 183.941406 48.195312 183.761719 42.144531 183.625 C 36.050781 183.539062 29.507812 183.480469 22.980469 183.609375 C 15.289062 183.742188 9.371094 184.003906 3.789062 184.464844 L 0.152344 184.761719 L 3.777344 185.195312 C 9.335938 185.863281 15.242188 186.347656 22.921875 186.769531 C 25.003906 186.890625 27.089844 186.988281 29.164062 187.078125 Z M 29.164062 187.078125 " fill-opacity="1" fill-rule="nonzero"/><path fill="#000000" d="M 69.480469 231.191406 C 76.644531 228.445312 82.117188 226.167969 87.222656 223.816406 L 90.519531 222.296875 L 86.984375 223.121094 C 81.527344 224.394531 75.8125 225.960938 68.457031 228.195312 C 62.144531 230.089844 55.960938 232.148438 50.21875 234.09375 C 44.464844 236.097656 38.300781 238.28125 32.207031 240.640625 C 25.027344 243.394531 19.554688 245.671875 14.464844 248.011719 L 11.148438 249.539062 L 14.699219 248.707031 C 20.160156 247.429688 25.875 245.863281 33.226562 243.628906 C 39.488281 241.75 45.691406 239.6875 51.46875 237.734375 C 57.175781 235.75 63.308594 233.582031 69.480469 231.191406 Z M 69.480469 231.191406 " fill-opacity="1" fill-rule="nonzero"/><path fill="#000000" d="M 105.628906 256.074219 L 108.203125 253.519531 L 105.167969 255.503906 C 100.46875 258.570312 95.632812 262 89.488281 266.613281 C 84.183594 270.570312 79.085938 274.617188 74.363281 278.402344 C 69.648438 282.253906 64.601562 286.410156 59.675781 290.722656 C 53.875 295.765625 49.507812 299.777344 45.523438 303.722656 L 42.925781 306.292969 L 45.984375 304.292969 C 50.671875 301.226562 55.503906 297.800781 61.660156 293.179688 C 66.898438 289.269531 72.023438 285.207031 76.785156 281.394531 C 81.460938 277.582031 86.476562 273.453125 91.476562 269.078125 C 97.277344 264.035156 101.640625 260.027344 105.628906 256.074219 Z M 105.628906 256.074219 " fill-opacity="1" fill-rule="nonzero"/><path fill="#000000" d="M 133.316406 279.707031 C 129.945312 284.203125 126.574219 289.078125 122.378906 295.515625 C 118.75 301.042969 115.339844 306.59375 112.195312 311.769531 C 109.078125 317 105.761719 322.632812 102.601562 328.375 C 98.867188 335.109375 96.136719 340.371094 93.742188 345.4375 L 92.183594 348.742188 L 94.371094 345.816406 C 97.726562 341.332031 101.101562 336.453125 105.304688 330.007812 C 108.890625 324.539062 112.320312 318.96875 115.492188 313.753906 C 118.589844 308.558594 121.894531 302.953125 125.089844 297.152344 C 128.816406 290.429688 131.546875 285.164062 133.941406 280.085938 L 135.492188 276.800781 Z M 133.316406 279.707031 " fill-opacity="1" fill-rule="nonzero"/><path fill="#000000" d="M 163.160156 311.414062 C 161.636719 317.859375 160.328125 324.238281 159.144531 330.175781 C 158 336.167969 156.804688 342.605469 155.800781 349.0625 C 154.59375 356.671875 153.828125 362.550781 153.308594 368.128906 L 152.96875 371.765625 L 154.027344 368.269531 C 155.648438 362.90625 157.152344 357.167969 158.898438 349.671875 C 160.398438 343.316406 161.71875 336.902344 162.917969 330.910156 C 164.054688 324.96875 165.246094 318.570312 166.265625 312.023438 C 167.46875 304.429688 168.238281 298.546875 168.753906 292.957031 L 169.085938 289.339844 L 168.035156 292.8125 C 166.40625 298.191406 164.902344 303.929688 163.160156 311.414062 Z M 163.160156 311.414062 " fill-opacity="1" fill-rule="nonzero"/><g clip-path="url(#efac6c4b5f)"><path fill="#000000" d="M 215.980469 349.796875 C 215.21875 343.308594 214.265625 336.832031 213.351562 330.792969 C 212.386719 324.820312 211.320312 318.398438 210.039062 311.898438 C 208.578125 304.351562 207.289062 298.5625 205.863281 293.128906 L 204.941406 289.617188 L 205.140625 293.242188 C 205.445312 298.863281 205.992188 304.769531 206.914062 312.390625 C 207.683594 318.964844 208.636719 325.40625 209.546875 331.394531 C 210.523438 337.410156 211.597656 343.859375 212.863281 350.289062 C 214.328125 357.84375 215.613281 363.632812 217.035156 369.058594 L 217.960938 372.589844 L 217.757812 368.945312 C 217.449219 363.34375 216.902344 357.441406 215.980469 349.796875 Z M 215.980469 349.796875 " fill-opacity="1" fill-rule="nonzero"/></g><path fill="#000000" d="M 269.664062 330.375 C 266.730469 324.539062 263.625 318.777344 260.699219 313.417969 C 257.75 308.128906 254.546875 302.457031 251.132812 296.796875 C 247.183594 290.214844 243.996094 285.214844 240.796875 280.589844 L 238.730469 277.605469 L 240.152344 280.941406 C 242.355469 286.105469 244.886719 291.464844 248.363281 298.328125 C 251.332031 304.238281 254.425781 309.96875 257.332031 315.285156 C 260.3125 320.625 263.539062 326.332031 266.902344 331.902344 C 270.859375 338.503906 274.046875 343.503906 277.234375 348.113281 L 279.3125 351.117188 L 277.875 347.757812 C 275.671875 342.597656 273.136719 337.238281 269.664062 330.375 Z M 269.664062 330.375 " fill-opacity="1" fill-rule="nonzero"/><path fill="#000000" d="M 313.472656 293.746094 C 308.710938 289.253906 303.828125 284.910156 299.253906 280.878906 C 294.691406 276.933594 289.753906 272.703125 284.585938 268.535156 C 278.617188 263.691406 273.914062 260.085938 269.335938 256.84375 L 266.375 254.75 L 268.855469 257.398438 C 272.6875 261.496094 276.898438 265.667969 282.507812 270.925781 C 287.308594 275.453125 292.179688 279.78125 296.730469 283.785156 C 301.347656 287.777344 306.324219 292.035156 311.398438 296.125 C 317.371094 300.96875 322.074219 304.578125 326.648438 307.824219 L 329.625 309.933594 L 327.128906 307.269531 C 323.304688 303.1875 319.09375 299.015625 313.472656 293.746094 Z M 313.472656 293.746094 " fill-opacity="1" fill-rule="nonzero"/><path fill="#000000" d="M 342.128906 244.324219 C 336.152344 241.75 330.0625 239.332031 324.367188 237.105469 C 318.707031 234.949219 312.605469 232.660156 306.367188 230.527344 C 299.105469 228.019531 293.453125 226.242188 288.039062 224.761719 L 284.542969 223.804688 L 287.777344 225.445312 C 292.78125 227.984375 298.164062 230.464844 305.230469 233.484375 C 311.300781 236.101562 317.351562 238.496094 322.988281 240.699219 C 328.699219 242.871094 334.835938 245.167969 340.992188 247.273438 C 348.265625 249.785156 353.917969 251.5625 359.316406 253.042969 L 362.835938 254.007812 L 359.578125 252.359375 C 354.589844 249.828125 349.207031 247.351562 342.128906 244.324219 Z M 342.128906 244.324219 " fill-opacity="1" fill-rule="nonzero"/><path fill="#000000" d="M 371.308594 189.648438 C 365.75 188.980469 359.847656 188.496094 352.164062 188.074219 C 345.636719 187.699219 339.101562 187.515625 333.011719 187.371094 C 326.96875 187.28125 320.464844 187.21875 313.847656 187.351562 C 306.167969 187.480469 300.25 187.746094 294.65625 188.210938 L 291.039062 188.507812 L 294.644531 188.941406 C 300.21875 189.613281 306.125 190.101562 313.789062 190.519531 C 315.875 190.640625 317.953125 190.742188 320.007812 190.824219 C 324.460938 191.011719 328.808594 191.125 332.941406 191.222656 C 339.035156 191.304688 345.578125 191.367188 352.105469 191.234375 C 359.792969 191.101562 365.714844 190.839844 371.296875 190.382812 L 374.933594 190.082031 Z M 371.308594 189.648438 " fill-opacity="1" fill-rule="nonzero"/><path fill="#000000" d="M 306.125 144.21875 C 298.957031 146.96875 293.484375 149.246094 288.386719 151.59375 L 285.089844 153.113281 L 288.621094 152.289062 C 294.089844 151.011719 299.804688 149.449219 307.152344 147.21875 C 313.488281 145.3125 319.660156 143.257812 325.390625 141.316406 C 331.148438 139.3125 337.3125 137.128906 343.402344 134.769531 C 350.585938 132.011719 356.058594 129.738281 361.144531 127.398438 L 364.460938 125.871094 L 360.90625 126.703125 C 355.453125 127.980469 349.738281 129.546875 342.378906 131.78125 C 336.121094 133.660156 329.914062 135.726562 324.140625 137.675781 C 318.429688 139.664062 312.296875 141.832031 306.125 144.21875 Z M 306.125 144.21875 " fill-opacity="1" fill-rule="nonzero"/><path fill="#000000" d="M 269.980469 119.339844 L 267.40625 121.890625 L 270.441406 119.910156 C 275.144531 116.835938 279.980469 113.410156 286.121094 108.796875 C 291.414062 104.847656 296.515625 100.800781 301.246094 97.011719 C 305.972656 93.148438 311.027344 88.984375 315.933594 84.691406 C 321.738281 79.644531 326.101562 75.632812 330.085938 71.691406 L 332.679688 69.121094 L 329.625 71.117188 C 324.945312 74.179688 320.109375 77.609375 313.949219 82.234375 C 308.707031 86.144531 303.582031 90.207031 298.824219 94.015625 C 294.144531 97.832031 289.125 101.964844 284.132812 106.332031 C 278.332031 111.375 273.96875 115.382812 269.980469 119.339844 Z M 269.980469 119.339844 " fill-opacity="1" fill-rule="nonzero"/><path fill="#000000" d="M 242.292969 95.703125 C 245.660156 91.210938 249.035156 86.332031 253.230469 79.898438 C 256.859375 74.363281 260.269531 68.816406 263.414062 63.640625 C 266.535156 58.402344 269.855469 52.765625 273.007812 47.035156 C 276.738281 40.304688 279.472656 35.042969 281.867188 29.972656 L 283.425781 26.671875 L 281.238281 29.59375 C 277.878906 34.082031 274.507812 38.957031 270.304688 45.40625 C 266.710938 50.882812 263.285156 56.453125 260.117188 61.65625 C 257.019531 66.851562 253.714844 72.457031 250.519531 78.261719 C 246.792969 84.980469 244.0625 90.246094 241.664062 95.324219 L 240.117188 98.609375 Z M 242.292969 95.703125 " fill-opacity="1" fill-rule="nonzero"/></svg>