<svg xmlns="http://www.w3.org/2000/svg" xmlns:xlink="http://www.w3.org/1999/xlink" width="500" zoomAndPan="magnify" viewBox="0 0 375 374.999991" height="500" preserveAspectRatio="xMidYMid meet" version="1.0"><defs><clipPath id="5bbc0a523a"><path d="M 2 4 L 373 4 L 373 370.734375 L 2 370.734375 Z M 2 4 " clip-rule="nonzero"/></clipPath></defs><rect x="-37.5" width="450" fill="#ffffff" y="-37.499999" height="449.999989" fill-opacity="1"/><rect x="-37.5" width="450" fill="#ffffff" y="-37.499999" height="449.999989" fill-opacity="1"/><g clip-path="url(#5bbc0a523a)"><path fill="#d25c0d" d="M 32.679688 286.265625 L 15.941406 293.3125 C 10.195312 295.730469 5.695312 300.488281 3.597656 306.359375 C 0.21875 315.820312 3.601562 326.417969 11.824219 332.128906 C 22.375 339.457031 38.039062 348.964844 52.761719 352.644531 C 76.238281 358.511719 159.027344 365.992188 168.160156 366.808594 L 173.066406 369.796875 C 174.550781 370.699219 176.210938 371.144531 177.871094 371.144531 C 179.980469 371.144531 182.082031 370.417969 183.785156 369.003906 C 185.90625 367.234375 187.117188 364.640625 187.109375 361.878906 C 187.101562 359.417969 186.121094 357.097656 184.398438 355.378906 L 187.574219 350.613281 L 190.75 355.378906 C 189.03125 357.097656 188.046875 359.417969 188.039062 361.878906 C 188.035156 364.640625 189.246094 367.234375 191.367188 369.003906 C 193.066406 370.421875 195.167969 371.144531 197.28125 371.144531 C 198.9375 371.144531 200.601562 370.699219 202.082031 369.796875 L 208.242188 366.046875 C 217.363281 365.300781 298.917969 358.511719 322.386719 352.644531 C 337.109375 348.964844 352.773438 339.460938 363.324219 332.132812 C 371.546875 326.421875 374.929688 315.824219 371.550781 306.359375 C 369.453125 300.488281 364.953125 295.734375 359.210938 293.3125 L 342.589844 286.316406 C 339.160156 284.875 335.394531 284.308594 331.695312 284.683594 L 248.320312 293.121094 L 249.953125 286.421875 C 249.996094 286.25 250.023438 286.074219 250.035156 285.902344 L 253.074219 240.324219 L 264.398438 166.722656 C 265.035156 162.578125 264.519531 158.335938 262.90625 154.460938 L 261.058594 150.027344 C 258.394531 143.636719 253.058594 138.847656 246.414062 136.894531 L 229.617188 131.953125 L 208.90625 125.046875 L 208.90625 110.070312 C 218.953125 99.132812 225.527344 81.710938 225.527344 66.285156 C 225.527344 52.445312 219.992188 40.085938 211.355469 32.007812 C 211.621094 30.875 211.871094 29.640625 211.871094 28.34375 C 211.871094 14.949219 200.972656 4.050781 187.578125 4.050781 C 174.183594 4.050781 163.285156 14.949219 163.285156 28.34375 C 163.285156 29.746094 163.5625 30.914062 163.847656 31.960938 C 155.1875 40.035156 149.625 52.417969 149.625 66.28125 C 149.625 81.707031 156.203125 99.128906 166.246094 110.070312 L 166.246094 124.175781 L 145.480469 131.964844 L 128.738281 136.890625 C 122.09375 138.84375 116.757812 143.632812 114.09375 150.023438 L 112.246094 154.457031 C 110.632812 158.332031 110.117188 162.574219 110.753906 166.722656 L 122.078125 240.320312 L 125.117188 285.898438 C 125.128906 286.074219 125.15625 286.246094 125.199219 286.417969 L 126.554688 291.976562 L 43.296875 284.605469 C 39.691406 284.285156 36.015625 284.859375 32.679688 286.265625 Z M 54.238281 346.730469 C 51.019531 345.925781 47.734375 344.804688 44.464844 343.484375 C 44.136719 340.167969 43.75 332.289062 46.351562 324.710938 C 47.785156 320.53125 54.585938 313.804688 58.078125 310.652344 L 72.222656 312.140625 C 87.519531 313.75 102.199219 318.148438 115.859375 325.214844 L 137.375 336.34375 L 140.136719 347.660156 C 140.523438 349.242188 141.5 350.578125 142.886719 351.421875 L 156.304688 359.589844 C 130.183594 357.113281 72.578125 351.3125 54.238281 346.730469 Z M 181.054688 334.042969 C 180.375 332.214844 178.953125 330.734375 177.15625 329.984375 L 181.0625 326.632812 C 181.816406 325.984375 182.839844 325.742188 183.808594 325.984375 L 184.527344 326.164062 L 184.527344 344.191406 L 179.695312 351.4375 L 170.167969 343.589844 L 174.417969 343.589844 C 177.117188 343.589844 179.546875 342.09375 180.75 339.675781 C 181.625 337.929688 181.734375 335.875 181.054688 334.042969 Z M 222.300781 268.230469 C 216.828125 270.101562 200.136719 275.449219 187.917969 275.601562 C 175.726562 275.78125 158.449219 270.183594 152.851562 268.246094 L 151.238281 246.082031 L 223.914062 246.082031 Z M 187.4375 281.699219 C 187.621094 281.699219 187.8125 281.699219 187.996094 281.695312 C 199.679688 281.550781 214.539062 277.203125 221.820312 274.824219 L 218.261719 323.785156 L 213.476562 323.785156 C 213.074219 323.785156 212.675781 323.863281 212.304688 324.019531 L 204.296875 327.355469 L 198.054688 322.007812 C 195.800781 320.074219 192.738281 319.355469 189.863281 320.070312 L 187.574219 320.644531 L 185.289062 320.070312 C 182.410156 319.351562 179.347656 320.074219 177.097656 322.007812 L 170.855469 327.355469 L 162.847656 324.019531 C 162.476562 323.863281 162.078125 323.785156 161.675781 323.785156 L 156.890625 323.785156 L 153.332031 274.84375 C 160.691406 277.269531 175.730469 281.699219 187.4375 281.699219 Z M 190.625 326.164062 L 191.34375 325.984375 C 192.304688 325.742188 193.332031 325.984375 194.089844 326.632812 L 197.996094 329.984375 C 196.199219 330.738281 194.78125 332.214844 194.097656 334.042969 C 193.417969 335.875 193.527344 337.929688 194.402344 339.675781 C 195.609375 342.089844 198.035156 343.589844 200.734375 343.589844 L 204.984375 343.589844 L 195.453125 351.4375 L 190.625 344.191406 Z M 320.914062 346.730469 C 302.578125 351.3125 245.695312 356.664062 219.9375 358.925781 L 232.265625 351.421875 C 233.652344 350.578125 234.632812 349.242188 235.019531 347.660156 L 238.144531 334.839844 L 260.421875 324.011719 C 273.308594 317.746094 287.066406 313.808594 301.316406 312.308594 L 314.617188 310.910156 C 317.101562 312.925781 324.019531 318.972656 325.839844 325.152344 C 327.507812 330.828125 325.226562 340.988281 323.78125 345.929688 C 322.820312 346.222656 321.863281 346.492188 320.914062 346.730469 Z M 332.3125 290.742188 C 335 290.476562 337.738281 290.882812 340.226562 291.929688 L 356.847656 298.929688 C 361.019531 300.6875 364.289062 304.140625 365.8125 308.410156 C 368.269531 315.28125 365.816406 322.980469 359.847656 327.125 C 352.085938 332.515625 341.480469 339.117188 330.722656 343.46875 C 332.042969 337.851562 333.433594 329.382812 331.6875 323.433594 C 330.15625 318.238281 326.160156 313.417969 322.765625 310.050781 L 337.207031 308.53125 L 336.570312 302.46875 L 300.679688 306.246094 C 285.726562 307.820312 271.285156 311.953125 257.757812 318.527344 L 240.023438 327.148438 L 246.789062 299.398438 Z M 255.433594 152.371094 L 257.28125 156.800781 C 258.464844 159.644531 258.839844 162.753906 258.375 165.792969 L 247.03125 239.523438 C 247.015625 239.609375 247.007812 239.699219 247.003906 239.785156 L 243.972656 285.230469 L 229.097656 346.214844 L 198.914062 364.585938 C 197.765625 365.285156 196.300781 365.175781 195.265625 364.316406 C 194.28125 363.492188 194.132812 362.445312 194.136719 361.890625 C 194.136719 361.339844 194.289062 360.292969 195.28125 359.476562 L 215.414062 342.894531 C 216.40625 342.078125 216.777344 340.726562 216.34375 339.515625 C 215.910156 338.304688 214.761719 337.496094 213.476562 337.496094 L 200.734375 337.496094 C 200.359375 337.496094 200.019531 337.289062 199.851562 336.953125 C 199.6875 336.617188 199.753906 336.316406 199.8125 336.167969 C 199.867188 336.015625 200.011719 335.742188 200.355469 335.601562 L 214.085938 329.878906 L 218.261719 329.878906 C 221.4375 329.878906 224.109375 327.394531 224.339844 324.226562 L 230.21875 243.355469 L 236.65625 197.023438 C 237.480469 191.074219 237.230469 185.085938 235.910156 179.226562 L 231 157.417969 C 229.613281 151.261719 229.59375 144.84375 230.902344 138.683594 L 244.691406 142.738281 C 249.566406 144.167969 253.480469 147.679688 255.433594 152.371094 Z M 172.339844 115.546875 C 177 118.925781 182.148438 120.929688 187.574219 120.929688 C 193.003906 120.929688 198.152344 118.925781 202.8125 115.546875 L 202.8125 130.507812 C 202.8125 138.910156 195.976562 145.742188 187.574219 145.742188 C 179.175781 145.742188 172.339844 138.910156 172.339844 130.507812 Z M 156.53125 75.277344 C 159.976562 58.613281 172.949219 46.566406 187.574219 46.566406 C 202.65625 46.566406 215.414062 57.945312 218.785156 74.292969 C 215.75 93.890625 202.382812 114.835938 187.574219 114.835938 C 173.015625 114.835938 159.851562 94.585938 156.53125 75.277344 Z M 187.574219 10.144531 C 197.375 10.144531 205.367188 17.933594 205.742188 27.640625 C 200.34375 24.214844 194.152344 22.261719 187.574219 22.261719 C 181 22.261719 174.808594 24.214844 169.410156 27.640625 C 169.785156 17.933594 177.777344 10.144531 187.574219 10.144531 Z M 187.574219 28.355469 C 202.75 28.355469 215.472656 41.054688 218.65625 57.992188 C 211.710938 47.21875 200.359375 40.472656 187.574219 40.472656 C 174.839844 40.472656 163.203125 47.9375 156.242188 59.492188 C 158.9375 41.808594 171.957031 28.355469 187.574219 28.355469 Z M 166.253906 130.683594 C 166.351562 142.363281 175.875 151.835938 187.574219 151.835938 C 199.019531 151.835938 208.359375 142.773438 208.859375 131.453125 L 225.058594 136.851562 C 223.441406 144.042969 223.433594 151.554688 225.054688 158.753906 L 229.96875 180.5625 C 231.125 185.707031 231.34375 190.964844 230.621094 196.183594 L 224.535156 239.988281 L 150.617188 239.988281 L 144.511719 196.042969 C 143.800781 190.910156 144 185.738281 145.109375 180.675781 L 150.050781 158.097656 C 151.585938 151.09375 151.578125 143.761719 150.046875 136.761719 Z M 116.777344 165.792969 C 116.3125 162.75 116.6875 159.640625 117.871094 156.800781 L 119.71875 152.367188 C 121.671875 147.679688 125.585938 144.167969 130.460938 142.734375 L 144.222656 138.6875 C 145.433594 144.644531 145.398438 150.851562 144.101562 156.792969 L 139.15625 179.371094 C 137.894531 185.136719 137.664062 191.027344 138.476562 196.878906 L 144.933594 243.355469 L 150.8125 324.222656 C 151.042969 327.394531 153.714844 329.875 156.890625 329.875 L 161.066406 329.875 L 174.796875 335.597656 C 175.140625 335.738281 175.285156 336.011719 175.339844 336.164062 C 175.398438 336.316406 175.464844 336.613281 175.300781 336.949219 C 175.132812 337.285156 174.792969 337.492188 174.417969 337.492188 L 161.675781 337.492188 C 160.390625 337.492188 159.242188 338.300781 158.808594 339.511719 C 158.375 340.722656 158.746094 342.078125 159.738281 342.894531 L 179.871094 359.472656 C 180.863281 360.292969 181.015625 361.335938 181.015625 361.890625 C 181.019531 362.441406 180.875 363.492188 179.886719 364.3125 C 178.855469 365.175781 177.386719 365.285156 176.238281 364.582031 L 146.050781 346.210938 L 131.175781 285.226562 L 128.148438 239.78125 C 128.144531 239.695312 128.132812 239.605469 128.121094 239.519531 Z M 135.457031 328.492188 L 118.65625 319.800781 C 104.320312 312.386719 88.914062 307.769531 72.859375 306.078125 L 38.582031 302.472656 L 37.945312 308.53125 L 50.125 309.8125 C 46.5 313.453125 42.023438 318.539062 40.585938 322.730469 C 38.292969 329.414062 38.007812 336.167969 38.175781 340.695312 C 29.644531 336.589844 21.550781 331.460938 15.300781 327.121094 C 9.332031 322.980469 6.882812 315.28125 9.335938 308.40625 C 10.859375 304.140625 14.128906 300.683594 18.304688 298.925781 L 35.042969 291.878906 C 37.464844 290.859375 40.132812 290.445312 42.753906 290.675781 L 128.074219 298.226562 Z M 135.457031 328.492188 " fill-opacity="1" fill-rule="nonzero"/></g></svg>